<?xml version="1.0" encoding="utf-8"?>
<!-- Generator: Adobe Illustrator 27.5.0, SVG Export Plug-In . SVG Version: 6.00 Build 0)  -->
<svg version="1.1" xmlns="http://www.w3.org/2000/svg" xmlns:xlink="http://www.w3.org/1999/xlink" x="0px" y="0px"
	 viewBox="0 0 750 500" style="enable-background:new 0 0 750 500;" xml:space="preserve">
<g id="BACKGROUND">
	<rect style="fill:#F8E3A2;" width="750" height="500"/>
</g>
<g id="OBJECTS">
	<g>
		<g>
			<g>
				<path style="fill:#FAFAFA;" d="M297.019,37.19c-26.793-0.792-53.714,10.522-71.897,30.217
					c-9.894,10.716-18.49,24.529-32.667,27.956c-12.846,3.105-26.473-3.539-39.405-0.813c-20.889,4.402-33.119,31.452-54.466,31.254
					c-17.339-0.16-28.488-18.202-43.865-26.217c-17.075-8.9-43.444-0.57-54.719,15.039V305.5h375l0-226.529
					C358.011,58.237,323.812,37.982,297.019,37.19z"/>
				<path style="fill:#FAFAFA;" d="M695.281,99.588c-15.377,8.014-26.526,26.057-43.865,26.217
					c-21.347,0.197-33.577-26.852-54.466-31.254c-12.932-2.726-26.558,3.919-39.404,0.813c-14.177-3.427-22.773-17.24-32.667-27.956
					c-18.183-19.695-45.104-31.009-71.897-30.217C426.188,37.982,391.989,58.237,375,78.971l0,226.529h375V114.627
					C738.725,99.018,712.357,90.688,695.281,99.588z"/>
			</g>
			<g>
				<polygon style="fill:#F1D178;" points="0,175.319 56,125.569 119.333,163.449 165.061,110.621 189.537,125.569 246.645,58.333 
					324.25,117.506 324.25,305.5 0,305.5 				"/>
				<polygon style="fill:#FCF2D6;" points="56,125.569 96,203.026 96,168.26 110.194,173.75 119.333,163.449 				"/>
				<polygon style="fill:#FCF2D6;" points="11.266,193.259 29.5,174.25 35.75,156.946 45,147.282 42,158.451 41.75,195.259 
					15,229.404 18.5,208.263 27,191.486 				"/>
				<polygon style="fill:#FCF2D6;" points="139.25,172.925 146.372,200.194 154,200.194 168.037,226.25 165.061,191.486 158,185.5 
					162.125,165.688 157.75,143.509 150.5,155.379 150.5,175.319 146.372,163.595 				"/>
				<polygon style="fill:#FCF2D6;" points="121,197.032 101.25,227.732 136.25,201.5 133.5,193.259 				"/>
				<polygon style="fill:#FCF2D6;" points="189.537,125.569 168.037,150.882 171.5,138.574 165.061,110.621 				"/>
				<polygon style="fill:#FCF2D6;" points="246.645,58.333 259.279,130.504 324.25,117.506 				"/>
			</g>
			<g>
				<polygon style="fill:#F1D178;" points="750,175.319 694,125.569 630.667,163.449 584.939,110.621 560.463,125.569 
					503.355,58.333 425.75,117.506 425.75,305.5 750,305.5 				"/>
				<polygon style="fill:#FCF2D6;" points="694,125.569 654,203.026 654,168.26 639.806,173.75 630.667,163.449 				"/>
				<polygon style="fill:#FCF2D6;" points="738.734,193.259 720.5,174.25 714.25,156.946 705,147.282 708,158.451 708.25,195.259 
					735,229.404 731.5,208.263 723,191.486 				"/>
				<polygon style="fill:#FCF2D6;" points="610.75,172.925 603.628,200.194 596,200.194 581.963,226.25 584.939,191.486 592,185.5 
					587.875,165.688 592.25,143.509 599.5,155.379 599.5,175.319 603.628,163.595 				"/>
				<polygon style="fill:#FCF2D6;" points="629,197.032 648.75,227.732 613.75,201.5 616.5,193.259 				"/>
				<polygon style="fill:#FCF2D6;" points="560.463,125.569 581.963,150.882 578.5,138.574 584.939,110.621 				"/>
				<polygon style="fill:#FCF2D6;" points="503.355,58.333 490.721,130.504 425.75,117.506 				"/>
			</g>
			<polygon style="fill:#6E5834;" points="181.314,330.93 158.292,238.378 148.475,277.844 135.271,224.758 125.197,265.254 
				112.249,213.199 94,286.562 84.674,249.07 79.57,269.587 69.435,228.84 57.153,278.215 47.563,239.663 38.584,275.761 
				23.022,213.199 0,305.75 31.124,305.75 24.542,332.214 63.992,332.214 61.652,341.621 107.696,341.621 98.773,305.75 
				115.124,305.75 112.249,317.31 138.658,317.31 135.271,330.93 			"/>
			<polygon style="fill:#6E5834;" points="568.686,330.93 591.708,238.378 601.525,277.844 614.729,224.758 624.803,265.254 
				637.751,213.199 656,286.562 665.326,249.07 670.43,269.587 680.565,228.84 692.847,278.215 702.437,239.663 711.416,275.761 
				726.978,213.199 750,305.75 718.876,305.75 725.458,332.214 686.008,332.214 688.348,341.621 642.304,341.621 651.227,305.75 
				634.876,305.75 637.751,317.31 611.342,317.31 614.729,330.93 			"/>
			<g>
				<g>
					<rect y="392.667" style="fill:#A4853C;" width="750" height="29"/>
					<rect y="366.333" style="fill:#BC9744;" width="750" height="26.333"/>
					<rect y="421.667" style="fill:#BC9744;" width="750" height="36"/>
					<rect y="457.667" style="fill:#A4853C;" width="750" height="42.333"/>
					<rect y="320.667" style="fill:#A4853C;" width="750" height="11.333"/>
					<rect y="305.5" style="fill:#A4853C;" width="750" height="6.5"/>
					<rect y="346.667" style="fill:#A4853C;" width="750" height="19.667"/>
					<rect y="312" style="fill:#BC9744;" width="750" height="8.667"/>
					<rect y="332" style="fill:#BC9744;" width="750" height="14.667"/>
				</g>
				<g>
					<g>
						<polygon style="fill:#B77C44;" points="71.367,279.833 58.689,314.697 84.045,314.697 						"/>
						<polygon style="fill:#E2A359;" points="34.962,279.833 71.367,279.833 58.689,314.697 22.284,314.697 						"/>
						<polygon style="fill:#422B2B;" points="71.367,314.697 71.367,285.939 66.027,314.697 						"/>
					</g>
					<g>
						<polygon style="fill:#B77C44;" points="146.372,279.803 127.683,331.197 165.061,331.197 						"/>
						<polygon style="fill:#E2A359;" points="92.705,279.803 146.372,279.803 127.683,331.197 74.016,331.197 						"/>
						<polygon style="fill:#422B2B;" points="146.372,331.197 146.372,288.803 138.5,331.197 						"/>
					</g>
					<g>
						<polygon style="fill:#B77C44;" points="87.872,323 69.183,374.394 106.561,374.394 						"/>
						<polygon style="fill:#EFBA6F;" points="34.205,323 87.872,323 69.183,374.394 15.516,374.394 						"/>
						<polygon style="fill:#422B2B;" points="87.872,374.394 87.872,332 80,374.394 						"/>
					</g>
				</g>
				<g>
					<g>
						<polygon style="fill:#B77C44;" points="678.633,279.833 691.311,314.697 665.955,314.697 						"/>
						<polygon style="fill:#E2A359;" points="715.038,279.833 678.633,279.833 691.311,314.697 727.716,314.697 						"/>
						<polygon style="fill:#422B2B;" points="678.633,314.697 678.633,285.939 683.973,314.697 						"/>
					</g>
					<g>
						<polygon style="fill:#B77C44;" points="603.628,279.803 622.317,331.197 584.939,331.197 						"/>
						<polygon style="fill:#E2A359;" points="657.295,279.803 603.628,279.803 622.317,331.197 675.984,331.197 						"/>
						<polygon style="fill:#422B2B;" points="603.628,331.197 603.628,288.803 611.5,331.197 						"/>
					</g>
					<g>
						<polygon style="fill:#B77C44;" points="662.128,323 680.817,374.394 643.439,374.394 						"/>
						<polygon style="fill:#EFBA6F;" points="715.795,323 662.128,323 680.817,374.394 734.484,374.394 						"/>
						<polygon style="fill:#422B2B;" points="662.128,374.394 662.128,332 670,374.394 						"/>
					</g>
				</g>
			</g>
		</g>
		<g>
			<polygon style="fill:#B77C44;" points="548.159,166.611 496.602,100.009 418.126,61.052 375,61.052 331.874,61.052 
				253.398,100.009 201.841,166.611 179.537,250 179.537,345 375,345 570.463,345 570.463,250 			"/>
			<path style="fill:#302013;" d="M524.864,118.634V98.009h-24.489h-2.386H475.5h-2h-22.875h-2H425.75h-2h-22.875h-2H376h-2h-22.875
				h-2H326.25h-2h-22.875h-2H276.5h-2h-22.489h-2.386h-24.489v20.625h-11.411v24.875v2v22.875v2v22.875v2v22.875v2v24.875h22.625
				v-24.875v-2v-22.875v-2v-22.875v-2v-22.875v-2v-22.875h13.275h2.386H274.5h2h22.875h2h22.875h2h22.875h2H374h2h22.875h2h22.875h2
				h22.875h2H473.5h2h22.489h2.386h13.275v22.875v2v22.875v2v22.875v2v22.875v2v24.875h22.625v-24.875v-2v-22.875v-2v-22.875v-2
				v-22.875v-2v-24.875H524.864z M523.664,132.071l-8.014,9.665v-19.33L523.664,132.071z M516.778,143.509l8.185-9.871l8.185,9.871
				H516.778z M533.148,145.509l-8.185,9.871l-8.185-9.871H533.148z M523.664,156.946l-8.014,9.665v-19.33L523.664,156.946z
				 M516.778,168.384l8.185-9.871l8.185,9.871H516.778z M533.148,170.384l-8.185,9.871l-8.185-9.871H533.148z M523.664,181.821
				l-8.014,9.665v-19.33L523.664,181.821z M516.778,193.259l8.185-9.871l8.185,9.871H516.778z M533.148,195.259l-8.185,9.871
				l-8.185-9.871H533.148z M523.664,206.696l-8.014,9.665v-19.33L523.664,206.696z M516.778,218.134l8.185-9.871l8.185,9.871
				H516.778z M533.148,220.134l-8.185,9.871l-8.185-9.871H533.148z M523.664,231.571l-8.014,9.665v-19.33L523.664,231.571z
				 M524.963,233.138l8.185,9.871h-16.369L524.963,233.138z M526.262,231.571l8.014-9.665v19.33L526.262,231.571z M526.262,206.696
				l8.014-9.665v19.33L526.262,206.696z M526.262,181.821l8.014-9.665v19.33L526.262,181.821z M526.262,156.946l8.014-9.665v19.33
				L526.262,156.946z M526.262,132.071l8.014-9.665v19.33L526.262,132.071z M533.148,120.634l-8.185,9.871l-8.185-9.871h8.086
				H533.148z M237.006,109.321l-9.871,8.184v-16.368L237.006,109.321z M228.909,100.009h19.329l-9.665,8.013L228.909,100.009z
				 M252.011,101.457l9.485,7.864l-9.485,7.864V101.457z M253.398,100.009h19.329l-9.665,8.013L253.398,100.009z M249.625,101.457
				v15.729l-9.485-7.864L249.625,101.457z M263.063,110.62l9.665,8.013h-19.329L263.063,110.62z M264.629,109.321l9.871-8.184
				v16.368L264.629,109.321z M276.5,101.137l9.871,8.184l-9.871,8.184V101.137z M278.273,100.009h19.329l-9.665,8.013
				L278.273,100.009z M287.938,110.62l9.665,8.013h-19.329L287.938,110.62z M289.504,109.321l9.871-8.184v16.368L289.504,109.321z
				 M301.375,101.137l9.871,8.184l-9.871,8.184V101.137z M303.148,100.009h19.329l-9.665,8.013L303.148,100.009z M312.813,110.62
				l9.665,8.013h-19.329L312.813,110.62z M314.379,109.321l9.871-8.184v16.368L314.379,109.321z M326.25,101.137l9.871,8.184
				l-9.871,8.184V101.137z M328.023,100.009h19.329l-9.665,8.013L328.023,100.009z M337.688,110.62l9.665,8.013h-19.329
				L337.688,110.62z M339.254,109.321l9.871-8.184v16.368L339.254,109.321z M351.125,101.137l9.871,8.184l-9.871,8.184V101.137z
				 M352.898,100.009h19.329l-9.665,8.013L352.898,100.009z M362.563,110.62l9.665,8.013h-19.329L362.563,110.62z M364.129,109.321
				l9.871-8.184v16.368L364.129,109.321z M376,101.137l9.87,8.184l-9.87,8.184V101.137z M377.773,100.009h19.329l-9.664,8.013
				L377.773,100.009z M387.438,110.621l9.664,8.013h-19.329L387.438,110.621z M389.005,109.321l9.87-8.184v16.368L389.005,109.321z
				 M400.875,101.137l9.87,8.184l-9.87,8.184V101.137z M402.648,100.009h19.328l-9.664,8.013L402.648,100.009z M412.313,110.621
				l9.664,8.013h-19.328L412.313,110.621z M413.88,109.321l9.87-8.184v16.368L413.88,109.321z M425.75,101.137l9.87,8.184
				l-9.87,8.184V101.137z M427.523,100.009h19.328l-9.664,8.013L427.523,100.009z M437.188,110.621l9.664,8.013h-19.328
				L437.188,110.621z M438.755,109.321l9.87-8.184v16.368L438.755,109.321z M450.625,101.137l9.87,8.184l-9.87,8.184V101.137z
				 M452.398,100.009h19.328l-9.664,8.013L452.398,100.009z M462.063,110.621l9.664,8.013h-19.328L462.063,110.621z M463.63,109.321
				l9.87-8.184v16.368L463.63,109.321z M475.5,101.137l9.87,8.184l-9.87,8.184V101.137z M497.989,117.185l-9.484-7.864l9.484-7.864
				V117.185z M486.938,108.022l-9.664-8.013h19.328L486.938,108.022z M486.938,110.621l9.664,8.013h-19.328L486.938,110.621z
				 M500.375,101.457l9.484,7.864l-9.484,7.864V101.457z M501.763,100.009h19.328l-9.664,8.013L501.763,100.009z M522.864,101.137
				v16.368l-9.87-8.184L522.864,101.137z M233.221,120.634l-8.184,9.871l-8.184-9.871h8.283H233.221z M223.738,132.071l-8.013,9.664
				v-19.329L223.738,132.071z M216.853,143.509l8.184-9.871l8.184,9.871H216.853z M233.221,145.509l-8.184,9.871l-8.184-9.871
				H233.221z M223.738,156.946l-8.013,9.664v-19.329L223.738,156.946z M216.853,168.384l8.184-9.871l8.184,9.871H216.853z
				 M233.221,170.384l-8.184,9.871l-8.184-9.871H233.221z M223.738,181.821l-8.013,9.664v-19.329L223.738,181.821z M216.853,193.259
				l8.184-9.871l8.184,9.871H216.853z M233.221,195.259l-8.184,9.871l-8.184-9.871H233.221z M223.738,206.696l-8.013,9.664v-19.329
				L223.738,206.696z M216.853,218.134l8.184-9.871l8.184,9.871H216.853z M233.221,220.134l-8.184,9.871l-8.184-9.871H233.221z
				 M223.738,231.571l-8.013,9.664v-19.329L223.738,231.571z M225.037,233.138l8.184,9.871h-16.368L225.037,233.138z
				 M226.336,231.571l8.013-9.665v19.329L226.336,231.571z M226.336,206.696l8.013-9.665v19.329L226.336,206.696z M226.336,181.821
				l8.013-9.665v19.329L226.336,181.821z M226.336,156.946l8.013-9.665v19.329L226.336,156.946z M226.336,132.071l8.013-9.665
				v19.329L226.336,132.071z M228.909,118.634l9.665-8.013l9.665,8.013H236.35H228.909z M501.763,118.634l9.664-8.013l9.664,8.013
				h-7.44H501.763z"/>
			<g>
				<polygon style="fill:#5B4527;" points="271.667,158 271.667,345 375,345 478.333,345 478.333,158 375,158 				"/>
				<polygon style="fill:#44331E;" points="375,152 267.706,152 267.706,158 271.667,158 375,158 478.333,158 482.294,158 
					482.294,152 				"/>
			</g>
			<g>
				<g>
					<g>
						<path style="fill:#302013;" d="M344.478,117.527c-3.036,0.34-5.365,1.802-5.201,3.266l1.021,9.11l10.996-1.232l-1.021-9.11
							C350.109,118.097,347.515,117.187,344.478,117.527z"/>
						<path style="fill:#FAFAFA;" d="M351.294,128.671c0.164,1.464-2.165,2.926-5.201,3.266c-3.036,0.34-5.631-0.57-5.795-2.034
							c-0.164-1.464,2.165-2.926,5.201-3.266C348.535,126.296,351.13,127.207,351.294,128.671z"/>
					</g>
					
						<linearGradient id="SVGID_1_" gradientUnits="userSpaceOnUse" x1="351.1217" y1="129.1537" x2="351.1217" y2="233.1538" gradientTransform="matrix(0.9938 -0.1113 0.1113 0.9938 -17.5195 40.0128)">
						<stop  offset="0" style="stop-color:#FFFFFF"/>
						<stop  offset="0.8007" style="stop-color:#FFFFFF;stop-opacity:0"/>
					</linearGradient>
					<polygon style="opacity:0.6;fill:url(#SVGID_1_);" points="351.294,128.671 345.796,129.286 340.298,129.902 324.799,236.29 
						357.375,232.64 389.952,228.99 					"/>
				</g>
				<g>
					<g>
						<path style="fill:#302013;" d="M285.033,118.137c-2.872,1.043-4.793,3.01-4.29,4.395l3.128,8.616l10.401-3.776l-3.128-8.617
							C290.641,117.371,287.905,117.094,285.033,118.137z"/>
						<path style="fill:#FAFAFA;" d="M294.271,127.372c0.503,1.384-1.418,3.352-4.29,4.394c-2.872,1.043-5.608,0.766-6.11-0.619
							c-0.503-1.384,1.418-3.352,4.29-4.394C291.033,125.711,293.769,125.988,294.271,127.372z"/>
					</g>
					
						<linearGradient id="SVGID_00000091693630180883077760000003760325290091976100_" gradientUnits="userSpaceOnUse" x1="305.2823" y1="122.0308" x2="305.2823" y2="226.0277" gradientTransform="matrix(0.94 -0.3413 0.3413 0.94 -39.5467 118.745)">
						<stop  offset="0" style="stop-color:#FFFFFF"/>
						<stop  offset="0.8007" style="stop-color:#FFFFFF;stop-opacity:0"/>
					</linearGradient>
					<polygon style="opacity:0.6;fill:url(#SVGID_00000091693630180883077760000003760325290091976100_);" points="294.271,127.372 
						289.071,129.26 283.871,131.148 293.749,238.204 324.561,227.017 355.374,215.831 					"/>
				</g>
				<g>
					<g>
						<path style="fill:#302013;" d="M229.463,161.899c-1.643,2.576-1.967,5.307-0.725,6.098l7.729,4.928l5.948-9.33l-7.73-4.928
							C233.444,157.876,231.106,159.322,229.463,161.899z"/>
						<path style="fill:#FAFAFA;" d="M242.415,163.595c1.242,0.792,0.917,3.522-0.725,6.098s-3.981,4.023-5.223,3.232
							c-1.242-0.792-0.917-3.522,0.726-6.098C238.835,164.25,241.174,162.803,242.415,163.595z"/>
					</g>
					
						<linearGradient id="SVGID_00000116919128671347427470000014038293611804405661_" gradientUnits="userSpaceOnUse" x1="269.3581" y1="142.06" x2="269.3581" y2="246.0613" gradientTransform="matrix(0.5376 -0.8432 0.8432 0.5376 -25.1486 319.008)">
						<stop  offset="0" style="stop-color:#FFFFFF"/>
						<stop  offset="0.8007" style="stop-color:#FFFFFF;stop-opacity:0"/>
					</linearGradient>
					<polygon style="opacity:0.6;fill:url(#SVGID_00000116919128671347427470000014038293611804405661_);" points="242.415,163.595 
						239.441,168.26 236.467,172.925 309.515,251.808 327.136,224.167 344.758,196.526 					"/>
				</g>
				<g>
					<g>
						<path style="fill:#302013;" d="M231.15,218.171c-1.144,2.833-0.965,5.577,0.4,6.128l8.499,3.433l4.144-10.259l-8.499-3.434
							C234.329,213.488,232.294,215.337,231.15,218.171z"/>
						<path style="fill:#FAFAFA;" d="M244.194,217.473c1.366,0.552,1.545,3.295,0.4,6.128c-1.144,2.833-3.179,4.682-4.545,4.131
							c-1.365-0.552-1.545-3.295-0.4-6.128C240.794,218.771,242.828,216.921,244.194,217.473z"/>
					</g>
					
						<linearGradient id="SVGID_00000029044499944540557840000013515539891058897540_" gradientUnits="userSpaceOnUse" x1="231.5515" y1="171.6714" x2="231.5515" y2="275.6718" gradientTransform="matrix(0.3746 -0.9272 0.9272 0.3746 -3.7896 372.9846)">
						<stop  offset="0" style="stop-color:#FFFFFF"/>
						<stop  offset="0.8007" style="stop-color:#FFFFFF;stop-opacity:0"/>
					</linearGradient>
					<polygon style="opacity:0.6;fill:url(#SVGID_00000029044499944540557840000013515539891058897540_);" points="244.194,217.473 
						242.122,222.603 240.05,227.732 326.273,291.95 338.551,261.556 350.829,231.162 					"/>
				</g>
				<g>
					<g>
						<path style="fill:#302013;" d="M405.522,117.527c3.036,0.34,5.365,1.802,5.201,3.266l-1.021,9.11l-10.996-1.232l1.021-9.11
							C399.891,118.097,402.485,117.187,405.522,117.527z"/>
						<path style="fill:#FAFAFA;" d="M398.706,128.671c-0.164,1.464,2.165,2.926,5.201,3.266s5.631-0.57,5.795-2.034
							c0.164-1.464-2.165-2.926-5.201-3.266C401.465,126.296,398.87,127.207,398.706,128.671z"/>
					</g>
					
						<linearGradient id="SVGID_00000129165177789069326740000005420628229365993360_" gradientUnits="userSpaceOnUse" x1="351.1217" y1="129.1537" x2="351.1217" y2="233.1538" gradientTransform="matrix(-0.9938 -0.1113 -0.1113 0.9938 767.5195 40.0128)">
						<stop  offset="0" style="stop-color:#FFFFFF"/>
						<stop  offset="0.8007" style="stop-color:#FFFFFF;stop-opacity:0"/>
					</linearGradient>
					<polygon style="opacity:0.6;fill:url(#SVGID_00000129165177789069326740000005420628229365993360_);" points="398.706,128.671 
						404.204,129.286 409.702,129.902 425.201,236.29 392.625,232.64 360.048,228.99 					"/>
				</g>
				<g>
					<g>
						<path style="fill:#302013;" d="M464.967,118.137c2.872,1.043,4.793,3.01,4.29,4.395l-3.128,8.616l-10.4-3.776l3.128-8.617
							C459.359,117.371,462.095,117.094,464.967,118.137z"/>
						<path style="fill:#FAFAFA;" d="M455.729,127.372c-0.503,1.384,1.418,3.352,4.29,4.394c2.872,1.043,5.608,0.766,6.11-0.619
							c0.503-1.384-1.418-3.352-4.29-4.394C458.967,125.711,456.231,125.988,455.729,127.372z"/>
					</g>
					
						<linearGradient id="SVGID_00000066502970851987024610000013871398807826709145_" gradientUnits="userSpaceOnUse" x1="305.2823" y1="122.0308" x2="305.2823" y2="226.0277" gradientTransform="matrix(-0.94 -0.3413 -0.3413 0.94 789.5467 118.745)">
						<stop  offset="0" style="stop-color:#FFFFFF"/>
						<stop  offset="0.8007" style="stop-color:#FFFFFF;stop-opacity:0"/>
					</linearGradient>
					<polygon style="opacity:0.6;fill:url(#SVGID_00000066502970851987024610000013871398807826709145_);" points="455.729,127.372 
						460.929,129.26 466.129,131.148 456.251,238.204 425.439,227.017 394.626,215.831 					"/>
				</g>
				<g>
					<g>
						<path style="fill:#302013;" d="M520.537,161.899c1.643,2.576,1.967,5.307,0.726,6.098l-7.729,4.928l-5.948-9.33l7.73-4.928
							C516.556,157.876,518.894,159.322,520.537,161.899z"/>
						<path style="fill:#FAFAFA;" d="M507.585,163.595c-1.242,0.792-0.917,3.522,0.725,6.098c1.642,2.576,3.981,4.023,5.223,3.232
							c1.242-0.792,0.917-3.522-0.726-6.098C511.165,164.25,508.826,162.803,507.585,163.595z"/>
					</g>
					
						<linearGradient id="SVGID_00000138573233326123881500000014224804859458392249_" gradientUnits="userSpaceOnUse" x1="269.3581" y1="142.06" x2="269.3581" y2="246.0614" gradientTransform="matrix(-0.5376 -0.8432 -0.8432 0.5376 775.1486 319.008)">
						<stop  offset="0" style="stop-color:#FFFFFF"/>
						<stop  offset="0.8007" style="stop-color:#FFFFFF;stop-opacity:0"/>
					</linearGradient>
					<polygon style="opacity:0.6;fill:url(#SVGID_00000138573233326123881500000014224804859458392249_);" points="507.585,163.595 
						510.559,168.26 513.533,172.925 440.485,251.808 422.864,224.167 405.242,196.526 					"/>
				</g>
				<g>
					<g>
						<path style="fill:#302013;" d="M518.85,218.171c1.144,2.833,0.965,5.577-0.4,6.128l-8.499,3.433l-4.144-10.259l8.499-3.434
							C515.671,213.488,517.706,215.337,518.85,218.171z"/>
						<path style="fill:#FAFAFA;" d="M505.806,217.473c-1.366,0.552-1.545,3.295-0.4,6.128c1.144,2.833,3.179,4.682,4.545,4.131
							c1.366-0.552,1.545-3.295,0.4-6.128C509.206,218.771,507.172,216.921,505.806,217.473z"/>
					</g>
					
						<linearGradient id="SVGID_00000044140554228397265370000005996667831626813851_" gradientUnits="userSpaceOnUse" x1="231.5515" y1="171.6714" x2="231.5515" y2="275.6718" gradientTransform="matrix(-0.3746 -0.9272 -0.9272 0.3746 753.7896 372.9846)">
						<stop  offset="0" style="stop-color:#FFFFFF"/>
						<stop  offset="0.8007" style="stop-color:#FFFFFF;stop-opacity:0"/>
					</linearGradient>
					<polygon style="opacity:0.6;fill:url(#SVGID_00000044140554228397265370000005996667831626813851_);" points="505.806,217.473 
						507.878,222.603 509.95,227.732 423.727,291.95 411.449,261.556 399.171,231.162 					"/>
				</g>
			</g>
			<g>
				<rect x="262.667" y="261.733" style="fill:#B6954B;" width="53.543" height="18.601"/>
				
					<rect x="282.137" y="246.263" transform="matrix(-1.836970e-16 1 -1 -1.836970e-16 560.4722 -18.4038)" style="fill:#A4853C;" width="14.602" height="49.543"/>
				<rect x="249.25" y="261.733" style="fill:#846C39;" width="13.417" height="18.601"/>
				<rect x="262.667" y="280.335" style="fill:#B6954B;" width="53.543" height="48.998"/>
				
					<rect x="266.939" y="280.063" transform="matrix(-1.836970e-16 1 -1 -1.836970e-16 594.272 15.396)" style="fill:#A4853C;" width="44.998" height="49.543"/>
				<rect x="249.25" y="280.335" style="fill:#846C39;" width="13.417" height="48.998"/>
			</g>
			<g>
				
					<rect x="433.791" y="261.733" transform="matrix(-1 -1.224647e-16 1.224647e-16 -1 921.124 542.0685)" style="fill:#B6954B;" width="53.543" height="18.601"/>
				
					<rect x="453.261" y="246.263" transform="matrix(-1.836970e-16 1 -1 -1.836970e-16 731.5962 -189.5278)" style="fill:#A4853C;" width="14.602" height="49.543"/>
				
					<rect x="487.333" y="261.733" transform="matrix(-1 -1.224647e-16 1.224647e-16 -1 988.0833 542.0685)" style="fill:#846C39;" width="13.417" height="18.601"/>
				
					<rect x="433.791" y="280.335" transform="matrix(-1 -1.224647e-16 1.224647e-16 -1 921.124 609.668)" style="fill:#B6954B;" width="53.543" height="48.998"/>
				
					<rect x="438.063" y="280.063" transform="matrix(-1.836970e-16 1 -1 -1.836970e-16 765.396 -155.728)" style="fill:#A4853C;" width="44.998" height="49.543"/>
				
					<rect x="487.333" y="280.335" transform="matrix(-1 -1.224647e-16 1.224647e-16 -1 988.0833 609.668)" style="fill:#846C39;" width="13.417" height="48.998"/>
			</g>
			<g>
				<g>
					<polygon style="fill:#EFBA6F;" points="375,329.333 243.204,329.333 243.204,345 375,345 506.796,345 506.796,329.333 					"/>
					<polygon style="fill:#EFBA6F;" points="375,305.5 322,305.5 322,329.333 375,329.333 428,329.333 428,305.5 					"/>
				</g>
				<g>
					<g>
						<path style="fill:#854126;" d="M384.536,248.883l-5.108-1.898c-0.784-0.291-1.303-1.039-1.303-1.875v-2.943h-2.021h-2.021
							v2.943c0,0.836-0.52,1.584-1.303,1.875l-5.108,1.898c-1.832,0.681-3.099,2.366-3.244,4.315L363.25,269h12.854h12.854
							l-1.178-15.802C387.635,251.249,386.368,249.564,384.536,248.883z"/>
						<g>
							<path style="fill:#E8C569;" d="M376.055,244.889L376.055,244.889c-2.793,0-5.057-2.264-5.057-5.057v-3.365
								c0-2.793,2.264-5.057,5.057-5.057l0,0c2.793,0,5.057,2.264,5.057,5.057v3.365
								C381.112,242.625,378.848,244.889,376.055,244.889z"/>
							<path style="fill:#302013;" d="M381.112,233.532c0-2.823-2.799-3.363-5.475-3.154l-1.475,0.115
								c-2.13,0.166-3.719,2.032-3.544,4.161l0.381,4.64c0,0,1.808-1.965,1.48-4.011c2.096,0.419,4.679-0.031,6.978-0.968
								c0.399,3.076,1.655,4.979,1.655,4.979V233.532z"/>
						</g>
					</g>
					<g>
						<rect x="339.627" y="269.75" style="fill:#B6954B;" width="22.333" height="28.417"/>
						<g>
							<rect x="343.48" y="298.167" style="fill:#B6954B;" width="1.5" height="7.333"/>
							<rect x="356.607" y="298.167" style="fill:#B6954B;" width="1.5" height="7.333"/>
						</g>
					</g>
					<g>
						<rect x="397.104" y="278.732" style="fill:#B6954B;" width="2.125" height="22.134"/>
						<polygon style="fill:#B6954B;" points="397.104,300.866 388.649,305.5 407.684,305.5 399.229,300.866 						"/>
						<g>
							<rect x="387.167" y="271.5" style="fill:#B6954B;" width="22" height="7.232"/>
							<rect x="387.167" y="269.75" style="fill:#B6954B;" width="22" height="1.75"/>
						</g>
					</g>
					<g>
						<path style="fill:#A4853C;" d="M362.543,254.853c-4.711-1.474-8.889-1.52-9.332-0.103l-3.023,9.663l17.06,5.336l3.023-9.663
							C370.714,258.67,367.254,256.327,362.543,254.853z"/>
						<path style="fill:#846C39;" d="M367.248,269.75c-0.443,1.417-4.621,1.37-9.332-0.103c-4.711-1.474-8.171-3.817-7.728-5.233
							c0.443-1.417,4.621-1.37,9.332,0.103C364.231,265.99,367.691,268.333,367.248,269.75z"/>
					</g>
					<g>
						<path style="fill:#A4853C;" d="M387.457,254.853c4.711-1.474,8.889-1.52,9.332-0.103l3.023,9.663l-17.06,5.336l-3.023-9.663
							C379.286,258.67,382.746,256.327,387.457,254.853z"/>
						<path style="fill:#846C39;" d="M382.752,269.75c0.443,1.417,4.621,1.37,9.332-0.103c4.711-1.474,8.171-3.817,7.728-5.233
							c-0.443-1.417-4.621-1.37-9.332,0.103C385.769,265.99,382.309,268.333,382.752,269.75z"/>
					</g>
					<g>
						<circle style="fill:#A4853C;" cx="375" cy="285.875" r="19.625"/>
						<path style="fill:#F1D178;" d="M375,303.5c-9.718,0-17.625-7.906-17.625-17.625c0-9.719,7.907-17.625,17.625-17.625
							c9.719,0,17.625,7.906,17.625,17.625C392.625,295.594,384.718,303.5,375,303.5z"/>
					</g>
					<g>
						<polygon style="fill:#F1D178;" points="341.55,300.866 333.095,305.5 352.131,305.5 343.675,300.866 						"/>
						<g>
							<rect x="341.613" y="240.751" style="fill:#F1D178;" width="2" height="60.115"/>
						</g>
						<g>
							<path style="fill:#F1D178;" d="M327.167,263L327.167,263c-0.454-0.315-0.566-0.938-0.251-1.392l20.554-29.607
								c0.315-0.454,0.938-0.566,1.392-0.251l0,0c0.453,0.315,0.566,0.938,0.251,1.391l-20.554,29.607
								C328.243,263.203,327.62,263.315,327.167,263z"/>
						</g>
						<polygon style="fill:#F1D178;" points="350.345,227.575 331.305,229.426 364.936,239.946 						"/>
					</g>
					<g>
						<polygon style="fill:#F1D178;" points="408.45,300.866 416.905,305.5 397.869,305.5 406.325,300.866 						"/>
						<g>
							<rect x="406.387" y="240.751" style="fill:#F1D178;" width="2" height="60.115"/>
						</g>
						<g>
							<path style="fill:#F1D178;" d="M422.833,263L422.833,263c0.454-0.315,0.566-0.938,0.251-1.392l-20.554-29.607
								c-0.315-0.454-0.938-0.566-1.392-0.251l0,0c-0.453,0.315-0.566,0.938-0.251,1.391l20.554,29.607
								C421.757,263.203,422.38,263.315,422.833,263z"/>
						</g>
						<polygon style="fill:#F1D178;" points="399.655,227.575 418.695,229.426 385.064,239.946 						"/>
					</g>
				</g>
			</g>
			<g>
				<path style="fill:#302013;" d="M301.802,269.053c3.735-1.493,5.767-5.487,5.245-9.475c-0.515-3.933-0.656-7.914-0.418-11.873
					c0.148-2.465,0.422-5.051-0.585-7.305c-1.247-2.792-4.454-4.503-7.494-4.179c-3.04,0.325-5.744,2.554-6.835,5.411
					c-0.932,2.441-0.759,5.14-0.789,7.753c-0.037,3.161-0.393,6.319-1.06,9.41c-0.776,3.597,0.549,7.422,3.66,9.387
					c1.309,0.827,2.786,1.365,4.298,1.501C299.169,269.802,300.527,269.562,301.802,269.053z"/>
				<g>
					<path style="fill:#CFA850;" d="M301.671,256.75v-4.583h-2.943h-2.943v4.583C296.806,259.467,300.65,259.467,301.671,256.75z"/>
					<polygon style="fill:#422B2B;" points="311.775,291.313 285.682,291.313 285.487,293.5 282.728,344.875 289.257,344.875 
						296.889,301.833 298.728,301.833 300.567,301.833 308.199,344.875 314.728,344.875 311.969,293.5 					"/>
					<path style="fill:#B77C44;" d="M309.027,260.5l-7.356-3.75c-1.021,2.717-4.864,2.717-5.885,0l-7.356,3.75l-2.747,30.813h26.093
						L309.027,260.5z"/>
				</g>
				<path style="fill:#E8C569;" d="M309.027,260.5l2.245,1.144c2.15,1.096,3.584,3.222,3.794,5.626l1.143,13.064l2.752,2.17
					l-1.316,4.328l-3.598-1.823c-1.847-0.936-3.08-2.757-3.264-4.819L309.027,260.5z"/>
				<g>
					<g>
						<path style="fill:#854126;" d="M312.284,295.197c-0.386-0.327-0.953-0.267-1.456-0.327c-0.828-0.099-1.6-0.597-2.032-1.312
							c-0.431-0.714-0.841-1.982-0.544-2.762l3.516-3.475c-0.393-1.208-0.911-2.361-1.713-3.338
							c-1.355-1.651-3.775-2.637-5.687-1.686c-1.618,0.805-2.438,2.716-4.021,3.589c-1.141,0.629-2.417,0.512-3.82-0.089
							c-0.391-0.223-0.793-0.429-1.209-0.61c-0.014-0.008-0.027-0.014-0.041-0.022l0.001,0.003
							c-1.549-0.669-3.256-1.044-5.051-1.044c-7.042,0-12.75,5.708-12.75,12.75s5.708,12.75,12.75,12.75
							c4.975,0,9.274-2.856,11.375-7.012l0.005,0.015c1.37-2.837,3.596-4.514,5.935-4.761c1.375-0.145,2.856,0.129,4.079-0.515
							c0.393-0.207,0.75-0.519,0.912-0.932C312.696,296.006,312.623,295.484,312.284,295.197z"/>
						<polygon style="fill:#672C23;" points="305.728,287.917 333.645,276.5 334.561,279.083 307.228,291.313 						"/>
					</g>
					<polygon style="fill:#854126;" points="344.963,275.841 343.42,271.492 334.27,274.125 333.645,276.5 334.561,279.083 
						336.603,279.833 					"/>
				</g>
				<path style="fill:#E8C569;" d="M288.429,260.5l-2.189,1.116c-1.927,0.982-3.291,2.8-3.697,4.924l-2.838,14.866
					c-0.3,1.571,0.17,3.19,1.263,4.357l10.884,11.612l3.194-3.5l-9.944-11.949l2.49-12.052L288.429,260.5z"/>
				<path style="fill:#E8C569;" d="M291.853,297.375l0.427,2.8c0.087,0.572,0.381,1.092,0.826,1.461l0.952,0.79
					c0.751,0.623,1.838,0.621,2.587-0.003l0,0c0.587-0.489,0.848-1.268,0.676-2.012l-0.531-2.286l1.038,1.118
					c0.328,0.354,0.877,0.386,1.245,0.073l0,0c0.34-0.289,0.418-0.784,0.181-1.164l-1.652-2.652l0.307,0.279
					c0.656,0.597,1.545,0.869,2.423,0.742l0,0l-0.697-1.228c-0.476-0.839-1.36-1.364-2.325-1.38l-2.263-0.038L291.853,297.375z"/>
				<polygon style="fill:#E8C569;" points="321.411,281.503 323.436,283.125 323.645,285.458 319.645,286.833 318.561,284.5 
					321.103,283.25 320.561,281.926 				"/>
				<path style="fill:#E8C569;" d="M305.205,245.49c-1.644-0.958-3.171-2.182-4.405-3.607c-2.326,2.546-5.318,4.476-8.59,5.561
					l0.093,0.936c0.358,3.607,3.572,6.24,7.179,5.882c3.607-0.358,6.24-3.572,5.882-7.179L305.205,245.49z"/>
			</g>
			<polygon style="fill:#B77C44;" points="375,345 153.175,345 153.175,448.333 375,448.333 596.825,448.333 596.825,345 			"/>
			<g>
				<g>
					<polygon style="fill:#854126;" points="192.993,337.65 207.779,330.529 189.398,250 172.987,250 					"/>
					<polygon style="fill:#672C23;" points="172.987,250 189.398,250 207.779,169.47 192.993,162.35 					"/>
					<polygon style="fill:#672C23;" points="198.853,345 219.318,345 207.779,330.529 192.993,337.65 					"/>
					<polygon style="fill:#854126;" points="192.993,162.35 207.779,169.47 259.279,104.891 249.047,92.06 					"/>
					<polygon style="fill:#672C23;" points="249.047,92.06 259.279,104.891 333.7,69.052 330.048,53.052 					"/>
					<polygon style="fill:#854126;" points="560.602,250 542.221,330.529 557.007,337.65 577.013,250 					"/>
					<polygon style="fill:#672C23;" points="557.007,162.35 542.221,169.47 560.602,250 577.013,250 					"/>
					<polygon style="fill:#672C23;" points="530.682,345 551.147,345 557.007,337.65 542.221,330.529 					"/>
					<polygon style="fill:#854126;" points="375,53.052 330.048,53.052 333.7,69.052 375,69.052 416.3,69.052 419.952,53.052 					
						"/>
					<polygon style="fill:#854126;" points="500.953,92.06 490.721,104.891 542.221,169.47 557.007,162.35 					"/>
					<polygon style="fill:#672C23;" points="419.952,53.052 416.3,69.052 490.721,104.891 500.953,92.06 					"/>
				</g>
				<path style="fill:#A5563A;" d="M572.841,206.339c-3.169-33.169-15.209-64.874-34.857-91.785l0,0
					c-17.082-23.397-39.403-42.47-65.177-55.694l-7.919-4.063c-26.215-13.449-55.255-20.464-84.719-20.464H375h-5.169
					c-29.464,0-58.504,7.015-84.719,20.464l-7.919,4.063c-25.774,13.223-48.096,32.297-65.177,55.694l0,0
					c-19.647,26.911-31.688,58.616-34.857,91.785L172.987,250l20.005-87.65l56.054-70.289l81.001-39.008H375h44.952l81.001,39.008
					l56.054,70.289L577.013,250L572.841,206.339z"/>
			</g>
			<g>
				<rect x="168.037" y="233" style="fill:#5B4527;" width="57" height="111.999"/>
				<g>
					<circle style="fill:#6E5834;" cx="196.537" cy="257" r="17"/>
					<circle style="fill:#846C39;" cx="196.537" cy="257" r="7"/>
					<circle style="fill:#846C39;" cx="196.537" cy="316.34" r="20.994"/>
					<path style="fill:#6E5834;" d="M196.537,329.333c-7.164,0-12.994-5.829-12.994-12.993c0-7.165,5.829-12.994,12.994-12.994
						c7.165,0,12.994,5.829,12.994,12.994C209.531,323.504,203.702,329.333,196.537,329.333z"/>
					<path style="fill:#6E5834;" d="M202.496,284.673c0,3.291-2.668,5.958-5.958,5.958c-3.291,0-5.958-2.668-5.958-5.958
						c0-3.291,2.668-5.958,5.958-5.958C199.828,278.715,202.496,281.382,202.496,284.673z"/>
				</g>
				<rect x="225.037" y="233" style="fill:#44331E;" width="18.167" height="111.999"/>
			</g>
			<g>
				
					<rect x="524.963" y="233" transform="matrix(-1 -1.224647e-16 1.224647e-16 -1 1106.9254 577.9995)" style="fill:#5B4527;" width="57" height="111.999"/>
				<g>
					<circle style="fill:#6E5834;" cx="553.463" cy="257" r="17"/>
					<circle style="fill:#846C39;" cx="553.463" cy="257" r="7"/>
					<circle style="fill:#846C39;" cx="553.463" cy="316.34" r="20.994"/>
					<path style="fill:#6E5834;" d="M553.463,329.333c7.164,0,12.994-5.829,12.994-12.993c0-7.165-5.829-12.994-12.994-12.994
						c-7.165,0-12.994,5.829-12.994,12.994C540.469,323.504,546.298,329.333,553.463,329.333z"/>
					<path style="fill:#6E5834;" d="M547.504,284.673c0,3.291,2.668,5.958,5.958,5.958s5.958-2.668,5.958-5.958
						c0-3.291-2.668-5.958-5.958-5.958S547.504,281.382,547.504,284.673z"/>
				</g>
				
					<rect x="506.796" y="233" transform="matrix(-1 -1.224647e-16 1.224647e-16 -1 1031.7587 577.9995)" style="fill:#44331E;" width="18.167" height="111.999"/>
			</g>
			<g>
				<g>
					<path style="fill:#CFA850;" d="M467.683,256.75v-4.583h-2.943h-2.943v4.583C462.819,259.467,466.663,259.467,467.683,256.75z"
						/>
					<polygon style="fill:#422B2B;" points="477.787,291.313 451.694,291.313 451.499,293.5 448.741,344.875 455.27,344.875 
						462.902,301.833 464.741,301.833 466.58,301.833 474.212,344.875 480.741,344.875 477.982,293.5 					"/>
					<path style="fill:#B77C44;" d="M475.04,260.5l-7.356-3.75c-1.021,2.717-4.864,2.717-5.885,0l-7.673-1.167l-2.431,35.729h26.093
						L475.04,260.5z"/>
				</g>
				<path style="fill:#E8C569;" d="M475.04,260.5l2.245,1.144c2.15,1.096,3.584,3.222,3.794,5.626l1.143,13.064l2.752,2.17
					l-1.316,4.328l-3.598-1.823c-1.847-0.936-3.08-2.757-3.264-4.819L475.04,260.5z"/>
				<g>
					<path style="fill:#854126;" d="M474.264,290.797c-0.9,0.27-2.306,2.537-0.59,3.42c0.836,0.43,1.801,0.43,2.736,0.334
						c0.935-0.097,1.987-0.128,2.689,0.497c0.682,0.608,0.784,1.689,0.429,2.531c-0.356,0.841-1.083,1.472-1.86,1.953
						c-4.482,2.772-10.539,1.234-15.278,3.538c-1.911,0.929-3.477,2.424-5.049,3.853c-1.573,1.429-3.236,2.845-5.238,3.557
						c-2.002,0.713-4.434,0.587-6.012-0.836c-2.102-1.896-1.966-5.175-1.665-7.99c0.429-4.012,0.894-8.142,2.816-11.689
						c1.923-3.548,5.687-6.411,9.703-6.025c2.32,0.223,4.513,1.485,6.837,1.311c2.691-0.201,4.83-2.243,6.735-4.154
						c1.905-1.911,4.083-3.929,6.778-4.059c0.786-0.038,1.606,0.105,2.25,0.558s1.073,1.256,0.938,2.032
						c-0.262,1.504-2.147,1.937-3.491,2.663c-1.653,0.893-2.593,2.694-2.67,4.572L474.264,290.797z"/>
					<polygon style="fill:#672C23;" points="471.741,287.917 499.657,276.5 500.574,279.083 473.241,291.313 					"/>
					<polygon style="fill:#854126;" points="510.976,275.841 509.432,271.492 500.282,274.125 499.657,276.5 500.574,279.083 
						502.616,279.833 					"/>
				</g>
				<polygon style="fill:#E8C569;" points="487.424,281.503 489.449,283.125 489.657,285.458 485.657,286.833 484.574,284.5 
					487.116,283.25 486.574,281.926 				"/>
				<g>
					<path style="fill:#E8C569;" d="M454.125,255.583l-10.634-13.417L442.875,225h-5.125l-0.557,17.165
						c-0.044,1.351,0.37,2.677,1.173,3.763l15.033,20.322L454.125,255.583z"/>
					<polygon style="fill:#E8C569;" points="437.75,225 436.5,218.375 440.875,216.5 441.563,211.563 443.25,211.563 
						443.875,218.281 445.657,218.688 442.875,225 					"/>
				</g>
				<g>
					<path style="fill:#E8C569;" d="M464.57,254.554L464.57,254.554c-3.553,0-6.433-2.88-6.433-6.433v-4.28
						c0-3.553,2.88-6.433,6.433-6.433l0,0c3.553,0,6.433,2.88,6.433,6.433v4.28C471.003,251.674,468.123,254.554,464.57,254.554z"/>
					<path style="fill:#302013;" d="M471.003,240.107c1.075-0.59,2.055-1.26,2.872-1.982c-3.021-1.592-6.432-2.296-9.837-2.03
						l-1.877,0.147c-2.709,0.212-4.731,2.585-4.508,5.293l0.485,5.903c0,0,2.3-2.5,1.883-5.103c2.667,0.533,5.952-0.04,8.877-1.231
						c0.507,3.913,2.105,6.334,2.105,6.334V240.107z"/>
				</g>
			</g>
			<g>
				<g>
					<rect x="271.667" y="337.333" style="fill:#44331E;" width="34.667" height="7.666"/>
					<polygon style="fill:#533F25;" points="306.333,337.333 319.167,323 325,345 306.333,345 					"/>
					<polygon style="fill:#5B4527;" points="271.667,337.333 284.5,323 319.167,323 306.333,337.333 					"/>
				</g>
				<g>
					
						<rect x="443.667" y="337.333" transform="matrix(-1 -1.224647e-16 1.224647e-16 -1 922 682.3328)" style="fill:#44331E;" width="34.667" height="7.666"/>
					<polygon style="fill:#533F25;" points="443.667,337.333 430.833,323 425,345 443.667,345 					"/>
					<polygon style="fill:#5B4527;" points="478.333,337.333 465.5,323 430.833,323 443.667,337.333 					"/>
				</g>
				<polygon style="fill:#44331E;" points="375,337.333 354.333,337.333 354.333,345 375,345 395.667,345 395.667,337.333 				"/>
				<polygon style="fill:#5B4527;" points="392.833,323 375,323 357.167,323 354.333,337.333 375,337.333 395.667,337.333 				"/>
			</g>
			<g>
				<g>
					<g>
						<path style="fill:#302013;" d="M334.045,349.786c2.94,0.831,5.648,0.356,6.049-1.061l2.494-8.821l-10.647-3.01l-2.494,8.821
							C329.046,347.132,331.104,348.954,334.045,349.786z"/>
						<path style="fill:#FAFAFA;" d="M331.941,336.894c0.401-1.417,3.109-1.892,6.049-1.061c2.94,0.831,4.999,2.654,4.598,4.071
							s-3.109,1.892-6.049,1.061C333.598,340.134,331.54,338.311,331.941,336.894z"/>
					</g>
					
						<linearGradient id="SVGID_00000106118823951640810210000005889182112524289924_" gradientUnits="userSpaceOnUse" x1="368.2212" y1="343.1904" x2="368.2212" y2="447.188" gradientTransform="matrix(-0.9623 -0.2721 0.2721 -0.9623 598.2192 768.8434)">
						<stop  offset="0" style="stop-color:#FFFFFF"/>
						<stop  offset="0.8007" style="stop-color:#FFFFFF;stop-opacity:0"/>
					</linearGradient>
					<polygon style="opacity:0.6;fill:url(#SVGID_00000106118823951640810210000005889182112524289924_);" points="331.941,336.894 
						337.264,338.399 342.588,339.904 397.103,247.241 365.56,238.322 334.016,229.404 					"/>
				</g>
				<g>
					<g>
						<path style="fill:#302013;" d="M244.698,349.786c2.94,0.831,5.648,0.356,6.049-1.061l2.494-8.821l-10.647-3.01l-2.494,8.821
							C239.699,347.132,241.757,348.954,244.698,349.786z"/>
						<path style="fill:#FAFAFA;" d="M242.593,336.894c0.401-1.417,3.109-1.892,6.049-1.061c2.94,0.831,4.999,2.654,4.598,4.071
							s-3.109,1.892-6.049,1.061C244.251,340.134,242.193,338.311,242.593,336.894z"/>
					</g>
					
						<linearGradient id="SVGID_00000068666377440280436560000011317314192252291714_" gradientUnits="userSpaceOnUse" x1="454.1947" y1="318.8805" x2="454.1947" y2="422.8781" gradientTransform="matrix(-0.9623 -0.2721 0.2721 -0.9623 598.2192 768.8434)">
						<stop  offset="0" style="stop-color:#FFFFFF"/>
						<stop  offset="0.8007" style="stop-color:#FFFFFF;stop-opacity:0"/>
					</linearGradient>
					<polygon style="opacity:0.6;fill:url(#SVGID_00000068666377440280436560000011317314192252291714_);" points="242.593,336.894 
						247.917,338.399 253.241,339.904 307.756,247.241 276.212,238.322 244.669,229.404 					"/>
				</g>
				<g>
					<g>
						<path style="fill:#302013;" d="M505.302,349.786c-2.94,0.831-5.648,0.356-6.049-1.061l-2.494-8.821l10.647-3.01l2.494,8.821
							C510.301,347.132,508.243,348.954,505.302,349.786z"/>
						<path style="fill:#FAFAFA;" d="M507.406,336.894c-0.401-1.417-3.109-1.892-6.049-1.061c-2.94,0.831-4.999,2.654-4.598,4.071
							s3.109,1.892,6.049,1.061C505.749,340.134,507.807,338.311,507.406,336.894z"/>
					</g>
					
						<linearGradient id="SVGID_00000084516553878557134410000014137745372596897450_" gradientUnits="userSpaceOnUse" x1="454.1947" y1="318.8805" x2="454.1947" y2="422.8781" gradientTransform="matrix(0.9623 -0.2721 -0.2721 -0.9623 151.7808 768.8434)">
						<stop  offset="0" style="stop-color:#FFFFFF"/>
						<stop  offset="0.8007" style="stop-color:#FFFFFF;stop-opacity:0"/>
					</linearGradient>
					<polygon style="opacity:0.6;fill:url(#SVGID_00000084516553878557134410000014137745372596897450_);" points="507.406,336.894 
						502.083,338.399 496.759,339.904 442.244,247.241 473.788,238.322 505.331,229.404 					"/>
				</g>
				<g>
					<g>
						<path style="fill:#302013;" d="M415.955,349.786c-2.94,0.831-5.648,0.356-6.049-1.061l-2.494-8.821l10.647-3.01l2.494,8.821
							C420.954,347.132,418.896,348.954,415.955,349.786z"/>
						<path style="fill:#FAFAFA;" d="M418.059,336.894c-0.401-1.417-3.109-1.892-6.049-1.061c-2.94,0.831-4.999,2.654-4.598,4.071
							c0.401,1.417,3.109,1.892,6.049,1.061C416.401,340.134,418.46,338.311,418.059,336.894z"/>
					</g>
					
						<linearGradient id="SVGID_00000132074925987253750510000010975195696152796603_" gradientUnits="userSpaceOnUse" x1="368.2212" y1="343.1904" x2="368.2212" y2="447.188" gradientTransform="matrix(0.9623 -0.2721 -0.2721 -0.9623 151.7808 768.8434)">
						<stop  offset="0" style="stop-color:#FFFFFF"/>
						<stop  offset="0.8007" style="stop-color:#FFFFFF;stop-opacity:0"/>
					</linearGradient>
					<polygon style="opacity:0.6;fill:url(#SVGID_00000132074925987253750510000010975195696152796603_);" points="418.059,336.894 
						412.736,338.399 407.412,339.904 352.897,247.241 384.44,238.322 415.984,229.404 					"/>
				</g>
			</g>
		</g>
		<g>
			<path style="fill:#44331E;" d="M66.132,431.184c1.124-4.657,1.647-30.664,4.466-34.538c2.991-4.111,8.514-6.209,13.489-7.256
				c0.096-0.805,0.155-1.919,0.251-2.724c-6.242-5.326-8.521-14.92-4.891-22.4c0.952-1.962,2.372-3.699,4.252-4.805
				c5.727-3.369,11.204,0.667,13.796,5.496c3.552,6.618,2.265,15.076-2.195,21.119c0,0.855,0.038,1.929,0.038,2.784
				c4.551,2.068,8.623,3.762,13.174,5.83c3.442-1.665,7.516-4.381,10.958-6.046c0.096-1.057,0.32-2.098,0.416-3.155
				c-2.292-2.631-4.415-5.471-5.722-8.705c-1.307-3.235-1.743-6.92-0.639-10.23c1.104-3.31,3.913-6.138,7.351-6.728
				c3.715-0.637,7.564,1.443,9.673,4.566s2.664,7.098,2.242,10.844c-0.421,3.746-2.155,7.637-3.542,11.142l9.506,5.885l2.112-11.317
				l2.037-27.538l2.716-25.124l-1.623-6.492c-0.449-1.797,0.31-3.68,1.882-4.662l2.435-1.522c0.725-0.453,1.638-0.577,2.42-0.233
				c0.996,0.44,1.564,1.382,1.564,2.366v1.714l0.812,0.855c0.791,0.833,0.932,2.091,0.343,3.077l-2.513,4.216l-0.088,20.184
				c1.518-0.961,3.246-1.551,5.048-1.589c4.194-0.089,8.09,2.8,9.963,6.554c1.873,3.754,1.956,8.199,1.062,12.298
				c-0.894,4.099-3.294,7.875-5.083,11.669l3.621,1.962l7.695-27.915l2.113-24.445l-2.113-5.13l2.236-0.905
				c0-1.833,1.486-3.32,3.32-3.32h1.152c1.977,0,3.515,1.717,3.3,3.681l-0.804,7.334l-1.66,25.199l-5.309,36.85
				c3.366-0.77,6.966-2.031,10.333-2.801c-1.377-3.39-2.762-6.81-3.424-10.409c-0.661-3.599-0.554-7.437,0.973-10.762
				c1.527-3.326,4.636-6.043,8.269-6.482c3.666-0.442,7.364,1.499,9.632,4.414s3.246,6.667,3.406,10.357
				c0.16,3.69-0.95,7.632-1.548,11.276l3.682,1.611c5.198,2.274,8.805,7.129,9.481,12.763l0.267,2.225h1.811
				c0.151-7.545,4.074-44.513,8.293-61.187c-0.088-2.555-0.045-5.261-0.08-7.876c-0.016-1.152,0.748-2.173,1.856-2.489
				c1.26-0.359,2.524-0.714,3.783-1.074c0.999-0.285,2.068,0.056,2.713,0.87l0.023,0.029c0.742,0.936,0.732,2.265-0.02,3.193
				c-0.09,0.112-0.181,0.222-0.271,0.331l0.012,0.006c0.823,0.413,1.295,1.335,1.079,2.23c-0.5,2.071-2.031,3.972-3.956,4.814
				c-0.351,3.394-0.862,6.276-1.213,9.67c3.712-2.72,9.246-2.058,12.784,0.885s5.21,7.709,5.2,12.311
				c-0.01,4.602-1.675,8.726-3.611,12.901c0.563,1.634,1.817,3.114,3.172,4.186c6.451-12.109,8.827-29.877,8.174-38.6
				c-1.094-3.044-1.393-6.449-1.036-9.708c0.132-1.204,1.216-2.073,2.425-1.994c1.686,0.109,3.391,0.24,5.067,0.339
				c0.718,0.042,1.381,0.407,1.767,1.014c0.416,0.653,0.794,1.374,1.103,2.111c0.511,1.219-0.144,2.616-1.398,3.035l-0.02,0.007
				c0.075,2.01-1.43,3.739-1.172,5.79c0.85,6.768,1.218,13.584-0.026,20.29c-1.392,7.506-2.829,15.51-4.224,23.053
				c3.742-3.02,7.766-5.807,12.055-7.98c-0.992-3.186-1.99-6.398-2.33-9.717c-0.34-3.319,0.019-6.795,1.612-9.727
				c1.592-2.932,4.553-5.232,7.88-5.479c3.545-0.263,7.012,1.863,8.9,4.875c1.888,3.012,2.343,6.762,1.849,10.282
				c-0.494,3.52-1.746,7.143-3.304,10.338c4.666,2.537,9.158,4.579,13.824,7.116c0.508,1.205,0.971,2.429,1.478,3.634
				c0.956-0.151,1.693-0.749,2.648-0.9c-0.627-3.936-0.903-8.054,0.366-11.831c1.269-3.778,4.385-7.153,8.33-7.714
				c4.488-0.638,8.869,2.563,10.822,6.653c1.953,4.09,1.826,8.813,1.238,13.307c0.905,0.453,2.141,1.541,3.153,1.541
				c0,0,7.394-13.731,5.008-32.539c-1.217-1.611-1.967-3.644-2.174-5.688c-0.098-0.971,0.679-1.808,1.653-1.764l0.016,0.001
				c0.061-0.473,0.148-0.951,0.258-1.428c0.502-2.191,2.993-3.217,4.91-2.043c1.05,0.643,2.046,1.39,2.966,2.196
				c0.87,0.761,1.245,1.951,1,3.08c-0.402,1.852-0.935,3.82-1.692,5.394c2.467,17.022,1.111,34.906-4.4,51.2h3.621l3.438-12.129
				c1.258-4.44,4.49-8.053,8.763-9.797l5.554-2.267c-0.83-3.337-1.664-6.703-1.792-10.139c-0.128-3.436,0.502-6.992,2.394-9.863
				c1.892-2.871,5.187-4.94,8.622-4.787c3.264,0.146,6.239,2.275,7.932,5.07c1.693,2.795,2.226,6.17,2.081,9.435
				c-0.145,3.264-0.602,7.124-1.381,10.297l7.18,2.744c4.244,1.622,7.482,5.141,8.744,9.506l3.201,11.064h1.358
				c0-2.716,1.471-17.768,3.621-25.01c0,0-7.695-11.656-9.28-19.805l2.534-21.27c-0.194-2.184-0.294-4.632-0.436-6.962
				c-0.093-1.521,1.04-3.016,2.521-3.375c0.874-0.212,1.757-0.388,2.646-0.526c2.004-0.311,3.793,1.341,3.684,3.366
				c-0.033,0.61-0.063,1.221-0.083,1.832c0,0,0,0,0,0.001c1.352,1.325,1.286,3.514-0.133,4.76c-0.604,0.531-1.19,1.06-1.676,1.577
				c-0.455,5.922-0.944,11.871-1.399,17.793c3.615,5.395,8.774,9.626,14.449,12.784c-1.024-3.554-1.84-7.252-1.44-10.929
				c0.4-3.677,2.194-7.365,5.374-9.254c3.276-1.947,7.601-1.658,10.9,0.249c3.299,1.907,5.618,5.241,6.841,8.85
				c1.223,3.609,1.499,8.126,1.298,11.932l5.403,1.192c3.025,0.667,5.5,2.835,6.558,5.747l3.732,10.263l0.429-3.808
				c0.423-3.746,3.122-6.839,6.777-7.763l7.365-1.862c-0.876-3.097-1.757-6.217-2.021-9.425c-0.264-3.207,0.125-6.546,1.664-9.372
				c1.539-2.827,4.346-5.067,7.547-5.403c3.329-0.35,6.668,1.416,8.702,4.074c2.035,2.658,2.876,6.086,2.882,9.433
				c0.007,3.347-0.738,7.026-1.659,10.244l9.815,3.812c4.086,1.587,7.166,5.033,8.287,9.271l5.098,19.284h1.584l1.25-15.163
				c-4.122-8.554-7.271-17.674-9.716-26.849c2.479-8.64,5.538-17.6,9.358-25.736c-0.723-2.257-1.207-4.766-1.481-7.186
				c-0.114-1.01,0.344-2.023,1.227-2.527c1.71-0.978,3.658-1.581,5.622-1.719c1.32-0.093,2.473,0.891,2.679,2.199
				c0.137,0.867,0.28,1.742,0.341,2.516c0,0,0,0,0,0c1.428,0.623,2.078,2.305,1.318,3.661c-0.961,1.715-2.453,3.186-4.148,4.034
				l-4.527,22.973l9.28,16.07l5.984-1.681c-0.303-4.71-0.477-9.568,1.12-14.009c1.596-4.441,5.378-8.412,10.078-8.84
				c3.433-0.312,6.884,1.344,9.141,3.949c2.258,2.605,3.394,6.057,3.6,9.497c0.206,3.441-0.833,6.773-1.857,10.065l6.79,1.924
				l13.014-15.957l-7.696-22.86c0,0-2.066-2.449-2.674-6.842c-0.217-1.569,1.155-2.905,2.719-2.652
				c0.149-0.563,0.303-1.148,0.458-1.736c0.355-1.351,1.794-2.091,3.109-1.621c1.805,0.645,3.555,1.714,4.926,2.988
				c0.553,0.514,0.828,1.271,0.719,2.018c-0.45,3.079-1.4,6.191-2.936,8.862c4.64,7.272,8.499,15.289,11.879,23.225
				c-3.429,7.781-7.475,15.109-12.696,21.82c2.052,1.922,4.069,3.721,6.121,5.643c2.186-10.569,10.785-19.525,21.313-21.901
				c-0.437-3.088-0.829-6.212-0.548-9.319c0.28-3.106,1.286-6.229,3.348-8.569c2.852-3.237,7.561-4.587,11.782-3.697
				c4.221,0.89,7.875,3.863,9.939,7.651c2.064,3.788,2.468,8.544,1.725,12.793c4.657,0.321,9.234,1.975,12.982,4.759l-17.654-39.383
				l-5.03-8.047c-0.783-1.253-0.479-2.896,0.701-3.785l4.215-3.179c1.378-1.039,3.355-0.625,4.2,0.88l1.497,2.664
				c1.892,0,3.258,1.809,2.741,3.629l-1.322,4.649c6.858,12.72,15.261,25.406,22.119,38.125c-2.478-4.868-3.335-10.663-1.759-15.893
				c0.861-2.859,2.502-5.5,4.67-7.544l-8.233-13.56c-1.603-0.474-3.42-1.073-5.103-1.594c-0.703-0.218-1.262-0.745-1.532-1.429
				c-0.128-0.323-0.262-0.653-0.393-0.98c-0.392-0.977-0.045-2.094,0.828-2.683l0,0c-0.024-0.454-0.023-0.941-0.018-1.435
				c0.013-1.222,0.939-2.245,2.154-2.379c1.606-0.178,3.175-0.388,4.789-0.558c1.027-0.109,2.019,0.446,2.47,1.375
				c1.046,2.157,1.817,4.568,2.367,6.834c4.102,3.764,7.84,7.924,11.148,12.401c4.722-0.456,9.717,1.604,12.271,5.598
				c1.905,2.98,2.376,6.701,1.974,10.215c-0.401,3.514-1.599,6.884-2.846,10.194c10.203,9.74,16.387,45.361,18.59,59.293H66.132z"/>
			<path style="fill:#302013;" d="M719.836,448.104c-3.806-2.123-7.741-4.939-11.547-7.061c1.232-4.582,1.272-9.585-0.539-13.971
				c-0.611-1.481-1.467-2.867-2.489-4.109c1.9-6.074,2.458-12.42,2.025-18.827c-0.479-7.081-1.944-14.052-3.451-20.99
				c-0.145-0.669-0.643-1.199-1.294-1.413c-1.953-0.643-4.055-0.846-6.089-0.568c-1.166,0.159-1.922,1.313-1.578,2.438
				c0.294,0.96,0.599,1.941,0.837,2.801c-0.006,0.002-0.012,0.003-0.018,0.005c-1.19,0.323-1.628,1.816-0.942,2.84
				c1.027,1.533,2.659,2.81,4.232,3.581c1.592,8.339,0.929,17.087-1.839,25.11c-4.579-0.894-10.263,0.165-12.542,4.192
				c-2.102-1.374-4.69-1.985-7.185-1.698c-2.494,0.287-4.87,1.13-6.605,2.946c0.688-5.212-1.67-10.716-5.917-13.815
				c-4.248-3.098-10.411-4.045-15.164-1.798c-1.163-4.055-3.689-7.763-7.224-10.065c-3.535-2.302-8.085-3.103-12.112-1.845
				c-4.027,1.258-7.504,4.431-8.437,8.545c-2.759-0.942-5.893-0.725-8.496,0.589c-2.602,1.314-4.965,3.45-5.844,6.23
				c-1.489-2.868-4.096-5.137-7.142-6.216c-3.046-1.079-7.015-1.605-9.977-0.313c0.255-3.527-1.625-7.044-4.504-9.097
				c-2.88-2.052-6.632-2.703-10.118-2.112c-6.145,1.041-12.332,6.486-13.718,12.562c-0.201-0.152-0.413-0.288-0.624-0.424
				c1.49-5.542,1.92-11.289,1.528-17.087c-0.479-7.081-1.944-14.052-3.451-20.991c-0.145-0.669-0.643-1.199-1.294-1.413
				c-1.953-0.643-4.055-0.846-6.089-0.568c-1.166,0.159-1.922,1.313-1.578,2.438c0.293,0.96,0.599,1.941,0.837,2.801
				c-0.006,0.002-0.012,0.003-0.018,0.005c-1.189,0.323-1.628,1.816-0.942,2.84c1.027,1.533,2.659,2.81,4.232,3.581
				c1.733,9.076,0.799,18.638-2.618,27.219c-1.827,0.605-3.428,1.672-4.679,3.233c-3.953-3.432-10.019-4.186-14.692-1.827
				c-4.673,2.359-7.518,7.497-7.104,12.716c-3.126-1.981-6.977-2.79-10.636-2.234c-3.659,0.556-7.746,2.489-10.143,5.309
				c-1.956-5.172-7.65-8.654-13.145-8.038c-3.121,0.35-5.899,1.98-7.858,4.326c-2.193-8.048-2.944-16.742-1.911-24.938
				c2.424-1.201,3.969-4.051,4.097-6.753c-0.564,0.015-1.071,0.091-1.635,0.106c-0.255-1.09-0.591-2.449-0.846-3.539
				c-2.292-0.342-4.713,0.214-6.644,1.495c-2.68,13.294-3.024,27.052-1.041,40.467c-1.511,0.679-2.794,1.823-3.534,3.363
				c-0.61-4.397-1.768-8.805-4.182-12.53s-6.224-6.711-10.614-7.367c-4.39-0.656-9.788,0.979-11.763,4.955
				c-1.97-1.814-4.694-2.781-7.367-2.615c-1.585,0.099-3.132,0.502-4.494,1.233c1.47-5.513,1.891-11.228,1.501-16.994
				c-0.479-7.081-1.944-14.052-3.451-20.991c-0.145-0.669-0.643-1.199-1.293-1.413c-1.953-0.643-4.055-0.846-6.089-0.568
				c-1.165,0.159-1.922,1.313-1.578,2.438c0.293,0.96,0.598,1.941,0.837,2.801c-0.006,0.002-0.012,0.003-0.018,0.005
				c-1.189,0.323-1.628,1.816-0.942,2.84c1.027,1.533,2.659,2.81,4.232,3.581c1.103,5.778,1.119,11.753,0.109,17.547
				c-2.61-3.16-6.764-5.209-10.777-4.461c-4.557,0.848-8.231,4.968-9.81,9.326c-0.619-0.445-1.29-0.814-1.99-1.116
				c-3.029-8.26-3.798-17.345-2.147-25.988c1.572-0.771,3.204-2.048,4.232-3.581c0.686-1.024,0.247-2.517-0.942-2.84
				c-0.006-0.002-0.012-0.003-0.018-0.005c0.238-0.86,0.543-1.841,0.837-2.801c0.344-1.125-0.413-2.279-1.578-2.438
				c-2.034-0.278-4.136-0.075-6.089,0.568c-0.65,0.214-1.148,0.744-1.294,1.413c-1.507,6.938-2.972,13.909-3.451,20.991
				c-0.345,5.098-0.046,10.156,1.039,15.071c-0.66,0.345-1.285,0.75-1.845,1.225c-1.375-6.281-7.245-11.29-13.664-11.661
				c-6.419-0.371-12.808,4.055-14.898,10.135c-1.864-2.336-4.649-3.915-7.61-4.316c-2.961-0.401-5.884-0.017-8.302,1.739
				c-2.59-3.982-7.596-6.243-12.296-5.552c-4.7,0.691-8.783,4.968-10.117,9.527c-2.836-1.408-6.284-1.523-9.207-0.307
				c-0.679,0.282-1.332,0.648-1.953,1.07c0.634-4.018,0.782-8.115,0.503-12.239c-0.479-7.081-1.944-14.052-3.451-20.991
				c-0.145-0.669-0.643-1.199-1.294-1.413c-1.953-0.643-4.055-0.846-6.089-0.568c-1.165,0.159-1.922,1.313-1.578,2.438
				c0.293,0.96,0.599,1.941,0.837,2.801c-0.006,0.002-0.012,0.003-0.018,0.005c-1.19,0.323-1.628,1.816-0.942,2.84
				c1.027,1.533,2.659,2.81,4.232,3.581c1.422,7.447,1.046,15.222-1.021,22.515c-1.805-1.45-3.994-2.418-6.302-2.648
				c-5.048-0.503-10.619,2.797-12.66,7.442c-0.447-0.125-0.903-0.215-1.361-0.287c-2.685-7.944-3.314-16.582-1.741-24.821
				c1.572-0.771,3.204-2.048,4.232-3.581c0.686-1.024,0.247-2.517-0.942-2.84c-0.006-0.002-0.012-0.003-0.018-0.005
				c0.238-0.86,0.543-1.841,0.837-2.801c0.344-1.125-0.413-2.279-1.578-2.438c-2.034-0.277-4.136-0.075-6.089,0.568
				c-0.65,0.214-1.148,0.744-1.294,1.413c-1.507,6.938-2.972,13.909-3.451,20.991c-0.355,5.251-0.031,10.46,1.137,15.513
				c-1.617,1.097-3.019,2.56-3.941,4.234c-1.324-4.077-4.422-7.544-8.325-9.317c-3.903-1.773-8.004-2.037-11.946-0.352
				c1.085-4.893-0.58-10.303-4.23-13.738c-3.649-3.436-9.15-4.772-13.968-3.394c-4.818,1.378-9.165,5.479-10.446,10.325
				c-4.197-4.5-10.855-6.548-16.856-5.184s-12.02,6.642-13.86,12.514c-2.004-1.671-4.589-2.62-7.195-2.675
				c1.118-9.802,2.128-19.817,3.279-29.554c0.139-1.176-0.605-2.264-1.745-2.586c-1.524-0.43-3.115-0.627-4.682-0.524
				c-1.191,0.079-2.135,1.02-2.238,2.209c-0.093,1.079-0.218,2.159-0.226,3.236c-0.006,0.005-0.013,0.01-0.019,0.015
				c-1.054,0.826-1.234,2.352-0.391,3.392c0.529,0.653,1.058,1.306,1.57,1.958c-0.529,8.244-1.859,16.436-3.96,24.426
				c-0.181,0.163-0.365,0.321-0.532,0.505c-2.255-5.109-7.342-8.853-12.89-9.488c-5.548-0.635-11.395,1.525-14.745,5.993
				c-1.68-6.942-8.186-12.424-15.312-12.904c-3.141-0.211-6.181,0.563-8.822,2.063c2.003-6.972,5.154-13.74,9.305-19.546
				c2.704,0.094,5.417-1.679,6.814-3.996c-0.504-0.255-0.985-0.429-1.489-0.684c0.293-1.08,0.644-2.436,0.937-3.516
				c-1.854-1.39-4.249-2.051-6.557-1.842c-8.507,10.223-15.255,21.904-19.879,34.373c-2.966-2.594-6.761-4.251-10.694-4.547
				c-5.654-0.426-11.451,1.963-15.162,6.25c-5.341-3.208-15.192-2.868-20.285,0.721c-5.093,3.589-8.53,11.243-7.306,17.352
				C39.222,438.227,27.237,470.365,31.561,500h695.555L719.836,448.104z"/>
			<g>
				<g>
					<path style="fill:#44331E;" d="M396.444,423.815c0.824-2.46,0.173-5.951-2.167-8.507c-1.14-1.275-2.72-2.34-4.493-2.851
						c-1.764-0.547-3.679-0.588-5.491-0.238c-1.809,0.372-3.537,1.126-4.982,2.228c-1.463,1.09-2.589,2.496-3.398,3.971
						c-1.621,2.977-1.887,6.208-1.405,8.733c0.338-2.554,1.23-5.367,2.969-7.755c1.705-2.402,4.326-4.188,7.295-4.765
						c2.952-0.604,6.052,0.082,8.21,1.991C395.18,418.486,396.431,421.227,396.444,423.815z"/>
				</g>
				<g>
					<path style="fill:#44331E;" d="M422.857,437.018c-0.357-1.939-1.559-4.123-3.546-5.74c-1.958-1.624-4.7-2.687-7.514-2.538
						c-2.814,0.152-5.426,1.501-7.201,3.325c-1.803,1.82-2.766,4.119-2.914,6.085c0.765-1.822,2.064-3.642,3.858-5.038
						c1.778-1.399,4.039-2.367,6.357-2.495c2.319-0.12,4.67,0.602,6.587,1.803C420.417,433.617,421.903,435.288,422.857,437.018z"/>
				</g>
				<g>
					<path style="fill:#44331E;" d="M480.495,436.661c-0.779-2.139-2.628-4.375-5.264-5.737c-2.6-1.378-5.992-1.895-9.124-0.929
						c-3.13,0.971-5.638,3.313-7.005,5.919c-1.406,2.613-1.669,5.502-1.104,7.707c0.164-2.275,0.968-4.731,2.491-6.858
						c1.504-2.123,3.718-3.906,6.259-4.697c2.544-0.782,5.378-0.562,7.818,0.341C477.024,433.303,479.075,434.877,480.495,436.661z"
						/>
				</g>
				<g>
					<path style="fill:#44331E;" d="M590.682,431.872c0.419-3.076-0.583-7.026-3.358-10.086c-1.37-1.519-3.17-2.825-5.248-3.577
						c-2.063-0.782-4.338-1.014-6.549-0.781c-2.207,0.268-4.373,1.004-6.208,2.229c-1.857,1.198-3.319,2.875-4.313,4.662
						c-2.018,3.604-2.11,7.678-1.012,10.582c-0.118-3.104,0.788-6.567,2.886-9.389c2.05-2.848,5.366-4.745,8.981-5.141
						c3.612-0.424,7.269,0.681,9.905,2.997C588.443,425.648,590.102,428.82,590.682,431.872z"/>
				</g>
				<g>
					<path style="fill:#44331E;" d="M622.255,426.42c-1.196-2.18-3.49-4.323-6.502-5.49c-2.98-1.187-6.675-1.404-9.998-0.155
						c-3.322,1.252-5.957,3.851-7.415,6.708c-1.494,2.863-1.807,5.987-1.269,8.415c0.259-2.478,1.154-5.152,2.796-7.504
						c1.623-2.349,3.981-4.363,6.723-5.401c2.746-1.028,5.847-1.068,8.616-0.372C617.991,423.307,620.426,424.727,622.255,426.42z"
						/>
				</g>
				<g>
					<path style="fill:#44331E;" d="M367.909,433.531c-0.653-3.019-2.67-6.376-5.895-8.772c-3.179-2.409-7.565-3.869-11.964-3.379
						c-4.398,0.495-8.353,2.889-10.92,5.942c-2.615,3.051-3.84,6.77-3.808,9.859c0.951-2.946,2.759-5.947,5.401-8.33
						c2.616-2.384,6.05-4.136,9.655-4.546c3.607-0.398,7.343,0.551,10.422,2.297C363.902,428.342,366.33,430.869,367.909,433.531z"
						/>
				</g>
				<g>
					<path style="fill:#44331E;" d="M303.269,433.51c-0.469-2.609-2.107-5.546-4.812-7.687c-2.664-2.15-6.394-3.513-10.181-3.19
						c-3.787,0.328-7.23,2.307-9.488,4.88c-2.3,2.57-3.412,5.744-3.43,8.395c0.858-2.513,2.459-5.059,4.768-7.054
						c2.287-1.997,5.267-3.433,8.366-3.704c3.1-0.261,6.281,0.646,8.875,2.223C299.983,428.945,301.995,431.18,303.269,433.51z"/>
				</g>
				<g>
					<path style="fill:#44331E;" d="M243.811,426.691c0.649-2.678,0.167-6.243-1.928-9.242c-1.034-1.488-2.458-2.842-4.183-3.76
						c-1.709-0.941-3.666-1.447-5.633-1.544c-1.967-0.069-3.962,0.266-5.744,1.061c-1.801,0.776-3.309,1.984-4.502,3.323
						c-2.384,2.719-3.497,5.884-3.993,8.583c1.316-2.417,2.999-5.104,5.387-7.189c1.19-1.027,2.55-1.904,4.032-2.433
						c1.48-0.554,3.103-0.773,4.708-0.719c3.235,0.124,6.309,1.559,8.378,3.897C242.44,420.981,243.576,423.943,243.811,426.691z"/>
				</g>
				<g>
					<path style="fill:#44331E;" d="M187.949,430.416c0.053-2.66-1.058-5.91-3.529-8.409c-1.223-1.242-2.771-2.304-4.532-2.945
						c-1.749-0.664-3.67-0.908-5.557-0.786c-1.885,0.149-3.75,0.667-5.387,1.575c-1.65,0.887-3.031,2.161-4.062,3.565
						c-2.087,2.827-2.721,6.203-2.287,8.828c0.421-2.63,1.65-5.423,3.751-7.611c2.068-2.21,5.032-3.607,8.167-3.824
						c3.134-0.235,6.267,0.722,8.631,2.613C185.538,425.286,187.155,427.874,187.949,430.416z"/>
				</g>
				<g>
					<path style="fill:#44331E;" d="M135.003,431.184c1.292-2.698,1.571-6.597,0-10.245c-0.773-1.809-1.994-3.56-3.633-4.91
						c-1.616-1.372-3.594-2.327-5.668-2.849c-2.081-0.491-4.277-0.553-6.343-0.079c-2.076,0.444-3.966,1.438-5.485,2.688
						c-3.074,2.516-4.619,6.107-4.714,9.096c1.04-2.807,3.093-5.572,5.974-7.366c2.848-1.833,6.483-2.41,9.892-1.566
						c3.415,0.819,6.377,3.005,8.062,5.943C134.82,424.814,135.37,428.213,135.003,431.184z"/>
				</g>
				<g>
					<path style="fill:#44331E;" d="M101.948,426.427c0.94-2.171,1.232-5.135,0.395-8.088c-0.806-2.941-2.735-5.871-5.552-7.719
						c-2.818-1.845-6.275-2.444-9.293-2.009c-3.042,0.412-5.643,1.862-7.258,3.591c2.084-1.131,4.656-1.889,7.389-1.905
						c2.72-0.029,5.584,0.68,7.926,2.209c2.337,1.537,4.13,3.88,5.189,6.385C101.821,421.404,102.154,424.065,101.948,426.427z"/>
				</g>
				<g>
					<path style="fill:#44331E;" d="M677.423,440.759c0.039-2.261-0.801-4.988-2.643-7.275c-1.809-2.288-4.617-4.139-7.798-4.677
						c-3.181-0.535-6.441,0.293-8.9,1.861c-2.49,1.556-4.178,3.857-4.883,6.006c1.352-1.819,3.288-3.5,5.66-4.588
						c2.356-1.095,5.133-1.592,7.764-1.153c2.63,0.448,5.09,1.829,6.957,3.635C675.465,436.375,676.743,438.598,677.423,440.759z"/>
				</g>
			</g>
			<path style="fill:#25160E;" d="M750,500c-1.368-5.667-1.145-15.108-4.575-19.822c-3.64-5.003-10.361-7.556-16.415-8.83
				c-0.117-0.98-0.189-2.335-0.306-3.315c7.596-6.482,10.369-18.156,5.951-27.259c-1.159-2.388-2.887-4.501-5.175-5.846
				c-6.969-4.099-13.634,0.812-16.788,6.688c-4.323,8.053-2.757,18.346,2.672,25.7c0,1.04-0.046,2.347-0.046,3.388
				c-5.539,2.517-10.493,4.578-16.031,7.095c-4.189-2.026-9.147-5.331-13.335-7.358c-0.117-1.286-0.389-2.554-0.506-3.839
				c2.789-3.201,5.372-6.657,6.963-10.594c1.59-3.936,2.121-8.421,0.777-12.448c-1.343-4.027-4.761-7.469-8.946-8.187
				c-4.521-0.776-9.205,1.756-11.771,5.557c-2.567,3.801-3.241,8.638-2.729,13.196c0.513,4.558,2.622,9.293,4.31,13.558
				l-11.568,7.161l-2.571-13.772l-2.479-33.511l-3.305-30.573l1.975-7.9c0.547-2.187-0.378-4.478-2.289-5.673l-3.039-1.9
				c-1.43-0.894-3.312-0.489-4.247,0.915c-0.342,0.512-0.524,1.114-0.524,1.73v2.086l-0.988,1.04
				c-0.963,1.014-1.133,2.544-0.418,3.745l3.059,5.131l0.107,24.562c-1.847-1.17-3.949-1.887-6.143-1.933
				c-5.104-0.108-9.844,3.407-12.124,7.975c-2.279,4.568-2.38,9.978-1.292,14.965c1.087,4.987,4.009,9.583,6.185,14.2l-4.407,2.387
				l-9.365-33.97l-2.571-29.746l2.571-6.243l-2.721-1.102c0-2.231-1.809-4.04-4.04-4.04h-1.403c-2.405,0-4.278,2.089-4.016,4.48
				l0.978,8.925l2.02,30.665l6.46,44.842c-4.097-0.937-8.477-2.472-12.573-3.409c1.675-4.126,3.362-8.287,4.166-12.667
				c0.805-4.38,0.674-9.05-1.184-13.096c-1.858-4.047-5.642-7.354-10.063-7.888c-4.462-0.538-8.961,1.824-11.721,5.371
				c-2.76,3.547-3.95,8.113-4.145,12.603c-0.195,4.49,1.156,9.287,1.883,13.722l-4.48,1.96c-6.326,2.767-10.715,8.676-11.537,15.531
				l-0.325,2.707h-2.203c-0.184-9.181-4.958-54.168-10.092-74.458c0.107-3.11,0.055-6.404,0.098-9.588
				c0.019-1.399-0.902-2.638-2.247-3.022c-1.536-0.438-3.077-0.871-4.612-1.31c-1.216-0.348-2.518,0.067-3.304,1.058l-0.028,0.035
				c-0.903,1.138-0.892,2.755,0.022,3.884c0.111,0.137,0.221,0.272,0.331,0.404c-0.005,0.002-0.01,0.005-0.015,0.007
				c-1.015,0.51-1.573,1.675-1.298,2.777c0.624,2.496,2.476,4.779,4.799,5.796c0.427,4.13,1.049,7.637,1.476,11.767
				c-4.517-3.31-11.251-2.505-15.557,1.077c-4.306,3.581-6.34,9.381-6.328,14.981s2.038,10.619,4.395,15.699
				c-0.685,1.988-2.212,3.789-3.86,5.094c-7.85-14.736-10.742-36.357-9.947-46.972c1.331-3.704,1.695-7.847,1.26-11.813
				c-0.161-1.465-1.48-2.523-2.951-2.427c-2.051,0.133-4.126,0.292-6.165,0.412c-0.874,0.052-1.682,0.496-2.152,1.235
				c-0.506,0.795-0.965,1.672-1.341,2.569c-0.622,1.484,0.176,3.184,1.702,3.692l0.025,0.008c-0.091,2.446,1.74,4.55,1.427,7.046
				c-1.034,8.231-1.484,16.521,0.029,24.678c1.694,9.137,3.445,18.883,5.143,28.066c-4.553-3.675-9.45-7.066-14.67-9.711
				c1.207-3.877,2.421-7.785,2.835-11.825c0.414-4.039-0.024-8.269-1.961-11.837c-1.938-3.568-5.54-6.367-9.59-6.667
				c-4.314-0.32-8.533,2.267-10.83,5.932c-2.298,3.665-2.851,8.228-2.25,12.512c0.601,4.284,2.124,8.692,4.02,12.58
				c-5.678,3.087-11.145,5.572-16.822,8.659c-0.618,1.467-1.181,2.956-1.799,4.423c-1.163-0.184-2.06-0.911-3.223-1.095
				c0.763-4.789,1.099-9.8-0.445-14.398c-1.544-4.597-5.336-8.704-10.137-9.387c-5.461-0.776-10.792,3.118-13.169,8.096
				c-2.377,4.977-2.222,10.724-1.506,16.194c-1.102,0.551-2.605,1.875-3.837,1.875c0,0-8.997-16.71-6.094-39.596
				c1.48-1.96,2.393-4.434,2.646-6.921c0.12-1.181-0.826-2.2-2.012-2.147l-0.019,0.001c-0.074-0.576-0.18-1.157-0.314-1.738
				c-0.611-2.666-3.643-3.915-5.975-2.486c-1.28,0.784-2.495,1.695-3.617,2.678c-1.066,0.933-1.503,2.391-1.202,3.775
				c0.488,2.243,1.135,4.624,2.052,6.53c-3.002,20.714-1.352,42.477,5.354,62.305h-4.407l-6.61-23.32l-14.996-6.121
				c1.01-4.061,2.025-8.156,2.18-12.338c0.155-4.181-0.611-8.509-2.913-12.003c-2.302-3.494-6.312-6.012-10.492-5.825
				c-3.973,0.177-7.592,2.768-9.652,6.169c-2.06,3.401-2.709,7.508-2.532,11.481c0.177,3.973,0.733,8.669,1.681,12.531l-8.738,3.339
				c-5.165,1.974-9.105,6.256-10.641,11.568l-3.895,13.463h-1.653c0-3.305-1.79-21.621-4.407-30.435c0,0,9.365-14.185,11.293-24.1
				l-3.083-25.883c0.236-2.657,0.358-5.636,0.531-8.471c0.113-1.852-1.266-3.671-3.069-4.108c-1.063-0.258-2.138-0.472-3.219-0.64
				c-2.439-0.378-4.616,1.632-4.483,4.096c0.04,0.743,0.076,1.486,0.102,2.229c0,0,0,0,0,0.001
				c-1.645,1.612-1.564,4.277,0.162,5.793c0.736,0.646,1.448,1.29,2.04,1.919c0.554,7.207,1.148,14.445,1.702,21.652
				c-4.4,6.565-10.677,11.714-17.583,15.556c1.247-4.325,2.239-8.825,1.752-13.3c-0.487-4.474-2.67-8.962-6.539-11.262
				c-3.986-2.369-9.249-2.018-13.264,0.303c-4.015,2.321-6.837,6.377-8.325,10.769c-1.488,4.392-1.825,9.889-1.58,14.519
				l-6.574,1.45c-3.682,0.812-6.692,3.45-7.981,6.993l-4.542,12.489l-0.523-4.634c-0.514-4.559-3.799-8.322-8.247-9.446
				l-8.962-2.266c1.066-3.768,2.138-7.566,2.459-11.469c0.321-3.903-0.153-7.965-2.025-11.405c-1.872-3.44-5.289-6.165-9.184-6.575
				c-4.051-0.426-8.114,1.723-10.59,4.957c-2.476,3.234-3.499,7.406-3.507,11.479c-0.008,4.073,0.899,8.55,2.018,12.466
				l-11.943,4.638c-4.972,1.931-8.721,6.125-10.084,11.281l-6.204,23.467h-1.928l-1.521-18.452
				c5.016-10.409,8.848-21.508,11.824-32.672c-3.016-10.514-6.739-21.417-11.388-31.318c0.88-2.747,1.469-5.799,1.803-8.744
				c0.139-1.229-0.419-2.462-1.493-3.076c-2.079-1.189-4.447-1.923-6.834-2.091c-1.608-0.113-3.017,1.084-3.268,2.676
				c-0.166,1.055-0.34,2.119-0.415,3.061c0,0,0,0,0,0c-1.738,0.758-2.529,2.805-1.604,4.456c1.17,2.087,2.985,3.877,5.047,4.909
				l5.509,27.956l-11.293,19.556l-7.282-2.045c0.369-5.731,0.58-11.644-1.363-17.048c-1.943-5.404-6.544-10.237-12.263-10.757
				c-4.177-0.38-8.377,1.636-11.124,4.806c-2.747,3.17-4.13,7.37-4.381,11.557c-0.25,4.187,1.014,8.242,2.26,12.248l-8.263,2.341
				l-15.837-19.418l9.365-27.819c0,0,2.514-2.98,3.255-8.327c0.264-1.91-1.405-3.535-3.308-3.227
				c-0.182-0.686-0.369-1.398-0.557-2.113c-0.432-1.643-2.182-2.544-3.782-1.972c-2.197,0.785-4.326,2.086-5.995,3.637
				c-0.673,0.625-1.008,1.547-0.875,2.456c0.548,3.747,1.704,7.534,3.573,10.784c-5.647,8.85-10.342,18.605-14.456,28.263
				c4.173,9.468,9.097,18.386,15.449,26.553c-2.497,2.339-4.951,4.528-7.448,6.867c-2.66-12.862-13.124-23.76-25.936-26.651
				c0.532-3.758,1.008-7.56,0.667-11.34c-0.341-3.78-1.565-7.581-4.075-10.428c-3.471-3.939-9.201-5.582-14.337-4.499
				c-5.137,1.083-9.583,4.701-12.095,9.31c-2.512,4.61-3.003,10.397-2.099,15.568c-5.667,0.391-11.237,2.403-15.797,5.791
				l21.484-47.925l6.12-9.793c0.953-1.524,0.583-3.524-0.853-4.606l-5.13-3.869c-1.676-1.264-4.083-0.76-5.111,1.07l-1.821,3.242
				c-2.302,0-3.965,2.202-3.335,4.415l1.608,5.658c-8.346,15.478-18.571,30.916-26.917,46.395c3.015-5.923,4.058-12.976,2.141-19.34
				c-1.048-3.479-3.045-6.693-5.683-9.18l10.018-16.501c1.95-0.577,4.161-1.305,6.208-1.939c0.858-0.266,1.539-0.911,1.869-1.746
				c0.135-0.341,0.275-0.687,0.414-1.032c0.489-1.215,0.153-2.671-0.929-3.407c-0.006-0.004-0.011-0.008-0.017-0.011
				c0.029-0.553,0.028-1.145,0.022-1.746c-0.016-1.492-1.149-2.732-2.631-2.897c-1.951-0.217-3.858-0.471-5.819-0.678
				c-1.239-0.131-2.439,0.512-2.985,1.632c-1.284,2.635-2.227,5.586-2.9,8.357c-4.991,4.581-9.54,9.643-13.566,15.091
				c-5.747-0.554-11.824,1.952-14.932,6.812c-2.318,3.626-2.891,8.155-2.403,12.431c0.488,4.276,1.946,8.377,3.463,12.405
				C11.065,461.906,2.68,483.046,0,500H750z"/>
		</g>
	</g>
</g>
</svg>
