<?xml version="1.0" encoding="utf-8"?>
<!-- Generator: Adobe Illustrator 27.5.0, SVG Export Plug-In . SVG Version: 6.00 Build 0)  -->
<svg version="1.1" xmlns="http://www.w3.org/2000/svg" xmlns:xlink="http://www.w3.org/1999/xlink" x="0px" y="0px"
	 viewBox="0 0 820 312" style="enable-background:new 0 0 820 312;" xml:space="preserve">
<g id="BACKGROUND">
	<rect style="fill:#FFF3DC;" width="820" height="312"/>
</g>
<g id="OBJECTS">
	<g>
		<g>
			<defs>
				<rect id="SVGID_1_" x="198.618" y="120.72" width="621.382" height="191.28"/>
			</defs>
			<clipPath id="SVGID_00000119093828160893792580000002668652513217327761_">
				<use xlink:href="#SVGID_1_"  style="overflow:visible;"/>
			</clipPath>
			
				<circle style="opacity:0.2;clip-path:url(#SVGID_00000119093828160893792580000002668652513217327761_);fill:#A7A4FE;" cx="498.206" cy="541.213" r="318.477"/>
			
				<circle style="opacity:0.2;clip-path:url(#SVGID_00000119093828160893792580000002668652513217327761_);fill:#A7A4FE;" cx="885.14" cy="396.234" r="269.499"/>
		</g>
		<g>
			<defs>
				
					<rect id="SVGID_00000134223404465169583750000011823978251271485375_" transform="matrix(-1 -1.224647e-16 1.224647e-16 -1 507.879 191.2803)" width="507.879" height="191.28"/>
			</defs>
			<clipPath id="SVGID_00000078752709725899252120000008398430552360843188_">
				<use xlink:href="#SVGID_00000134223404465169583750000011823978251271485375_"  style="overflow:visible;"/>
			</clipPath>
			
				<circle style="opacity:0.2;clip-path:url(#SVGID_00000078752709725899252120000008398430552360843188_);fill:#A7A4FE;" cx="169.822" cy="-206.342" r="269.499"/>
			
				<circle style="opacity:0.2;clip-path:url(#SVGID_00000078752709725899252120000008398430552360843188_);fill:#A7A4FE;" cx="-42.051" cy="-173.859" r="269.499"/>
		</g>
	</g>
	<g>
		<defs>
			
				<rect id="SVGID_00000176765446296279793590000004575653294607225015_" x="273.599" y="18.911" width="546.401" height="293.089"/>
		</defs>
		<clipPath id="SVGID_00000079451186739622167740000003528571255435307442_">
			<use xlink:href="#SVGID_00000176765446296279793590000004575653294607225015_"  style="overflow:visible;"/>
		</clipPath>
		<g style="clip-path:url(#SVGID_00000079451186739622167740000003528571255435307442_);">
			<g>
				<g>
					<path style="fill:#FFC8B3;" d="M548.04,244.644c0,0,5.696,20.094-1.749,22.145l-6.672-16.982l5.252-4.517L548.04,244.644z"/>
					<polygon style="fill:#252525;" points="542.543,251.826 549.039,248.889 548.832,247.897 545.581,247.897 542.102,250.206 
											"/>
				</g>
				<path style="fill:#68469A;" d="M527.824,131.033c0,0,6.99,1.022,11.829,11.022c4.839,10.001,28.067,99.363,28.067,99.363
					l-27.744,9.517l-21.615-68.554L527.824,131.033z"/>
			</g>
			<path style="fill:#FFC8B3;" d="M423.191,190.769c0,0-2.151,2.473-7.474,2.42l-0.428-18.012l8.493,0.902L423.191,190.769z"/>
			<g>
				<rect x="412.115" y="131.974" style="fill:#68230C;" width="5.162" height="215.849"/>
				<g>
					<g>
						<polygon style="fill:#FFC000;" points="409.319,117.904 404.641,136.571 424.966,138.829 422.707,116.946 						"/>
						<path style="fill:#252525;" d="M407.488,125.212c0,0,8.709,2.101,15.863-2.034l-0.201-1.944l-7.731-1.277l-6.672,0.229
							L407.488,125.212z"/>
					</g>
					<g>
						<path style="fill:#FFDF78;" d="M416.417,33.498c0,0-9.356,6.775-10.323,20.163c0,0-3.387-7.743-0.807-14.517
							c0,0-7.42,10.267-5.484,24.409c0,0-3.549-5.053-3.549-16.667c0,0-11.936,18.475,0,43.031c0,0-6.129,0.874-9.194-9.061
							c0,0-4.248,36.762,27.637,40.512c31.884,3.751,32.046-38.188,29.142-46.899c0,0-0.807,12.904-5.968,22.099
							c0,0,6.613-25.325-1.936-43.875c0,0,0.161,7.097-2.097,12.098c0,0,0.645-13.066-4.033-22.421c0,0-0.323,11.291-4.355,17.26
							C425.45,59.629,429.321,38.982,416.417,33.498z"/>
						<g>
							<g>
								<path style="fill:#252525;" d="M392.382,95.6c3.448,7.332,9.027,13.67,16.453,17.098
									C400.761,110.665,394.438,103.545,392.382,95.6L392.382,95.6z"/>
							</g>
							<g>
								<path style="fill:#252525;" d="M397.705,68.339c1.328,10.807,4.186,21.708,10.064,30.967
									c0.759,1.381,1.805,2.553,2.68,3.874C401.589,94.053,397.734,80.853,397.705,68.339L397.705,68.339z"/>
							</g>
							<g>
								<path style="fill:#252525;" d="M413.191,55.919c0.391,6.306,0.872,12.423,1.505,18.711
									C412.63,68.671,412.128,62.134,413.191,55.919L413.191,55.919z"/>
							</g>
							<g>
								<path style="fill:#252525;" d="M420.449,80.332c1.399-3.943,2.364-7.904,3.226-11.993
									C424.293,72.508,423.155,77.073,420.449,80.332L420.449,80.332z"/>
							</g>
							<g>
								<path style="fill:#252525;" d="M432.063,92.643c-0.921,8.066-4.543,16.683-11.614,21.185
									C426.499,108.196,429.678,100.397,432.063,92.643L432.063,92.643z"/>
							</g>
							<g>
								<path style="fill:#252525;" d="M428.192,79.953c-0.503,7.228-4.293,14.842-10.915,18.268
									C422.944,93.59,426.208,86.877,428.192,79.953L428.192,79.953z"/>
							</g>
						</g>
					</g>
				</g>
			</g>
			<g>
				<path style="fill:#FFC8B3;" d="M407.599,175.176c0,0-1.237,2.742,1.075,4.194c0,0-1.721,1.721-0.323,3.441
					c0,0-1.183,1.989,0,3.495c0,0-1.183,1.559,0.323,3.495c0,0,4.14,4.732,6.022,4.947c1.882,0.215,0.215-4.033-1.29-5.592
					c0,0,4.678,1.882,5.162-0.914c0.484-2.796-1.29-2.527-1.29-2.527s2.957-1.989,0.538-4.355c0,0,2.796-1.398,0.161-4.033
					C417.976,177.327,414.804,174.854,407.599,175.176z"/>
				<path style="fill:#FFC8B3;" d="M422.277,172.219c0,0-7.689-0.323-11.399,0.269s-3.495,0.43-4.301,1.452
					c-0.807,1.022,1.613,2.85,4.463,2.742c2.85-0.107,3.925,0.484,5.592,1.559c1.667,1.075,4.463,2.473,7.527,1.398L422.277,172.219
					z"/>
				<g>
					<path style="fill:#252525;" d="M407.417,175.721c2.44,1.172,4.857-0.062,7.35,0.91c2.393,1.093,3.965,2.792,6.551,3.372
						c-2.522,0.344-4.855-1.451-6.926-2.386C412.231,176.76,409.209,177.596,407.417,175.721L407.417,175.721z"/>
				</g>
				<g>
					<path style="fill:#252525;" d="M408.674,179.37c2.691,0.568,9.169,3.816,10.432,0.132c0.205,0.794-0.358,1.628-1.001,2.091
						C415.046,183.197,411.151,181.283,408.674,179.37L408.674,179.37z"/>
				</g>
				<g>
					<path style="fill:#252525;" d="M408.351,182.811c1.918,1.2,10.562,4.998,9.984,0.304c-0.07-0.587-0.318-1.158-0.521-1.755
						c0.835,0.991,1.659,2.337,0.983,3.703c-0.347,0.688-1.124,1.128-1.803,1.206C413.758,186.864,410.499,185.106,408.351,182.811
						L408.351,182.811z"/>
				</g>
				<g>
					<path style="fill:#252525;" d="M408.351,186.306c2.341,0.746,7.848,4.633,9.753,2.202c0.307-0.684,0.525-1.749-0.032-2.387
						c-0.191-0.209-0.482-0.338-0.795-0.407c0.691-0.145,1.407,0.357,1.616,1.031c0.789,2.8-1.388,3.958-3.871,3.448
						C412.379,189.625,410.374,187.937,408.351,186.306L408.351,186.306z"/>
				</g>
			</g>
			<g>
				<path style="fill:#68469A;" d="M461.151,131.033c0,0-9.087,1.183-11.345,9.409c-2.258,8.227-5.968,39.519-5.968,39.519
					l19.84,13.227l0.968-58.553L461.151,131.033z"/>
				<polygon style="fill:#68469A;" points="420.933,169.316 450.452,170.929 464.646,192.34 457.854,199.982 422.385,209.544 				
					"/>
				<g>
					<path style="fill:#252525;" d="M445.001,170.631c1.844-0.622,3.686-0.527,5.451,0.298
						C448.608,171.557,446.767,171.45,445.001,170.631L445.001,170.631z"/>
				</g>
			</g>
			<path style="fill:#492B71;" d="M455.667,89.847c0,0,33.39-20.271,70.866,2.796c0,0-7.873,6.825-38.068,5.377
				C459.323,96.621,455.667,89.847,455.667,89.847z"/>
			<g>
				<path style="fill:#FE712B;" d="M514.651,84.954c0,0-0.484,4.839,1.936,8.872c2.42,4.033,3.387,6.936,1.936,12.259
					c-1.452,5.323-1.129,6.613,1.936,8.388c3.065,1.774,3.871,4.517,2.42,8.872c-1.452,4.355,0.7,11.291,0.7,11.291l-47.639-2.581
					l5.473-51.199h22.594L514.651,84.954z"/>
				<g>
					<path style="fill:#252525;" d="M506.585,87.83c2.152,2.926,3.306,6.549,3.612,10.199c0.371,4.511-0.704,8.991-0.084,13.459
						c0.319,2.224,1.393,4.149,2.486,6.089c1.417,3.006,1.045,6.458-0.003,9.485c-0.267,0.868-0.641,1.694-0.85,2.572
						c0.098-0.904,0.384-1.772,0.581-2.648c0.597-2.554,0.898-5.353,0.004-7.836c-0.626-1.69-1.823-3.09-2.475-4.79
						c-0.708-1.744-0.975-3.643-0.991-5.482c-0.01-3.625,0.605-7.218,0.526-10.802C509.258,94.517,508.355,90.951,506.585,87.83
						L506.585,87.83z"/>
				</g>
				<path style="fill:#E55413;" d="M502.373,105.718c0,0-0.143,4.345,1.577,8.969c1.721,4.624,1.625,11.076-0.586,12.259
					l-10.293-1.124l0.556-12.318L502.373,105.718z"/>
			</g>
			<polygon style="fill:#FFC8B3;" points="495.24,116.946 495.24,124.366 491.1,131.033 486.1,131.033 482.228,126.731 
				482.228,120.279 			"/>
			<g>
				<path style="fill:#68469A;" d="M495.24,124.366c0,0,20.109,3.441,32.583,6.667l-5.592,57.209l-29.68,11.058l-30.54-7.617
					c0,0-11.424-8.173-1.733-39.358l0.873-21.292l22.529-5.323C483.68,125.71,489.702,129.097,495.24,124.366z"/>
				<path style="fill:#68469A;" d="M462.012,191.683c0,0,30.379,6.613,60.22-3.441c0,0,20.647,56.886,26.131,88.825
					c5.484,31.938,7.742,70.756,7.742,70.756H434.483c0,0-4.655-31.664,7.42-90.845
					C452.549,204.802,462.012,191.683,462.012,191.683z"/>
				<g>
					<g>
						<path style="fill:#252525;" d="M525.743,152.325c-0.883,11.999-1.91,23.985-3.04,35.963
							c4.921,13.703,10.722,31.536,15.133,46.21c1.551,5.199,3.026,10.426,4.266,15.708c-1.494-5.216-3.173-10.37-4.843-15.529
							c-3.19-9.907-12.182-36.259-15.498-46.481C522.972,176.226,524.285,164.268,525.743,152.325L525.743,152.325z"/>
					</g>
					<g>
						<path style="fill:#252525;" d="M457.854,199.982c1.248-2.834,2.536-5.65,3.866-8.445c0,0,0.083,0.397,0.083,0.397
							c-10.6-8.964-5.995-28.398-1.525-39.609c-1.017,3.314-1.837,6.676-2.518,10.056c-1.672,9.66-3.349,21.914,4.659,29.228
							C460.94,194.422,459.418,197.214,457.854,199.982L457.854,199.982z"/>
					</g>
				</g>
			</g>
			<g>
				<path style="fill:#FE712B;" d="M468.679,83.932c0,0-0.538,3.549-1.398,11.184c-0.86,7.635-6.452,6.655-4.839,12.63
					c1.613,5.974,3.441,8.017,1.721,11.674c-1.721,3.656-1.398,3.334-0.753,8.495c0.645,5.162-4.086,8.925-2.151,13.334
					c1.936,4.409,5.484,6.667,3.011,12.689c-2.473,6.022-5.131,8.603-3.479,14.517c1.651,5.914-0.512,12.582-0.512,12.582
					s2.271-0.107,5.927-0.645c3.656-0.538,6.452,0,6.452,0s3.549-4.624,3.28-8.603c-0.269-3.979-0.806-7.958-0.806-7.958
					s4.839,3.656,4.839,7.743c0,4.086-1.613,8.388-1.613,8.388s9.786-1.613,7.743-10.001s-3.118-8.603-1.506-15.378
					c1.613-6.775,2.904-5.807,0.753-16.561c-2.151-10.754,0.108-21.077,0.108-21.077l-5.377-36.992l-7.743,1.936L468.679,83.932z"/>
				<g>
					<path style="fill:#252525;" d="M471.905,102.057c-1.114,6.667-0.204,13.248,0.799,19.855c0.473,3.433-1.384,6.638-2.364,9.739
						c-0.422,1.554-0.667,3.199-0.628,4.781c-0.086,2.52,1.813,4.469,2.536,6.834c0.704,2.499,0.417,5.174-0.021,7.659
						c-0.34,3.292-2.201,6.398-2.743,9.558c-0.427,4.749,1.236,10.081,1.091,14.854c-0.031,1.698-0.576,3.331-1.3,4.823
						c0.606-1.55,1.042-3.176,0.99-4.828c-0.157-4.827-1.953-10.069-1.628-14.941c0.466-3.38,2.294-6.132,2.639-9.629
						c0.535-3.225,0.78-6.612-1-9.369c-0.859-1.431-1.597-3.199-1.57-4.925c-0.024-1.747,0.25-3.429,0.712-5.081
						c1.02-3.204,2.792-5.982,2.473-9.436C471.062,115.33,470.348,108.668,471.905,102.057L471.905,102.057z"/>
				</g>
				<g>
					<path style="fill:#252525;" d="M478.68,116.946c-1.703,3.715-2.463,7.933-1.587,11.936c0.995,3.968,3.345,7.708,3.482,11.902
						c0.285,2.753,0.411,5.643-0.254,8.364c-0.64,2.659-1.393,5.241-1.011,7.969c0.27,2.732,1.492,5.177,2.332,7.796
						c1.207,3.889,1.997,8.547-0.292,12.212c-0.742,1.191-1.802,2.151-2.994,2.837c1.131-0.784,2.096-1.796,2.752-2.981
						c1.962-3.672,1.067-8.052-0.239-11.81c-0.955-2.564-2.201-5.149-2.513-7.938c-0.436-2.792,0.311-5.643,0.934-8.311
						c0.671-2.663,0.569-5.332,0.326-8.053c-0.135-4.201-2.35-7.782-3.177-11.853C475.666,124.901,476.666,120.542,478.68,116.946
						L478.68,116.946z"/>
				</g>
			</g>
			<path style="fill:#252525;" d="M484.787,121.363l5.103-2.454l5.35-1.025v1.508c0,0-2.171,3.96-10.656,4.198l-0.46-1.375
				L484.787,121.363z"/>
			<g>
				<path style="fill:#FF7CB3;" d="M462.012,191.683c0,0,29.142,6.237,60.22-3.441l3.003,8.784c0,0-31.464,14.052-67.381,2.957
					L462.012,191.683z"/>
				<path style="fill:#492B71;" d="M489.863,205.448h-16.358c-0.653,0-1.182-0.529-1.182-1.182v-12.099
					c0-0.653,0.529-1.182,1.182-1.182h16.358c0.653,0,1.182,0.529,1.182,1.182v12.099
					C491.045,204.918,490.516,205.448,489.863,205.448z"/>
			</g>
			<g>
				<g>
					<path style="fill:#FFC8B3;" d="M470.453,93.341c0,0-0.807,30.164,16.453,27.906c17.259-2.258,16.453-24.034,16.453-24.034
						l-4.678-17.259l-21.615,1.129l-4.839,6.614L470.453,93.341z"/>
					<g>
						<path style="fill:#252525;" d="M494.284,98.728c-0.035,1.106-0.79,1.979-1.687,1.951c-0.897-0.028-1.597-0.947-1.562-2.053
							c0.035-1.106,0.79-1.979,1.687-1.951S494.319,97.623,494.284,98.728z"/>
						<path style="fill:#252525;" d="M479.189,98.875c-0.035,1.106-0.79,1.979-1.688,1.951c-0.897-0.028-1.596-0.947-1.562-2.053
							c0.035-1.106,0.79-1.979,1.687-1.951C478.524,96.85,479.223,97.769,479.189,98.875z"/>
						<g>
							<path style="fill:#252525;" d="M484.134,97.325c-0.036,2.926-0.546,5.811-1.187,8.656l-0.074-0.365
								c0.615,0.833,1.806,1.208,2.835,1.307c0.39,0.036,0.788,0.045,1.197,0.047c-0.377,0.152-0.772,0.278-1.183,0.345
								c-1.318,0.213-2.744-0.062-3.659-1.154c-0.073-0.089-0.1-0.2-0.084-0.305C482.454,102.957,483.064,100.07,484.134,97.325
								L484.134,97.325z"/>
						</g>
						<g>
							<path style="fill:#252525;" d="M489.696,93.816c1.452-2.709,5.698-2.345,7.282,0.099
								C494.551,92.943,492.17,92.44,489.696,93.816L489.696,93.816z"/>
						</g>
						<g>
							<path style="fill:#252525;" d="M480.201,94.138c-2.652-1.568-5.089-1.859-7.692-0.219
								C474.104,90.835,478.65,91.219,480.201,94.138L480.201,94.138z"/>
						</g>
						<path style="fill:#DB6565;" d="M497.38,104.182c0.008,0.772-1.357,1.411-3.047,1.428c-1.691,0.017-3.068-0.595-3.075-1.367
							c-0.008-0.772,1.357-1.411,3.047-1.428C495.995,102.798,497.372,103.41,497.38,104.182z"/>
						<path style="fill:#DB6565;" d="M478.762,104.759c0.008,0.772-1.356,1.411-3.047,1.428c-1.691,0.017-3.068-0.595-3.075-1.367
							c-0.008-0.772,1.356-1.411,3.047-1.428C477.378,103.375,478.755,103.987,478.762,104.759z"/>
						<g>
							<path style="fill:#252525;" d="M483.358,112.053c2.672,0.363,4.926,0.015,7.043-1.613
								C489.452,113.25,485.477,113.977,483.358,112.053L483.358,112.053z"/>
						</g>
					</g>
				</g>
				<path style="fill:#FE712B;" d="M478.035,82.319c0,0,2.473,3.656-1.505,5.914c-3.979,2.258-4.732,1.29-6.076,5.108V82.749
					L478.035,82.319z"/>
				<path style="fill:#FE712B;" d="M491.261,81.889c0,0,2.904,3.871,6.13,6.452c3.226,2.581,2.903,4.678,3.065,7.904
					c0.161,3.226-1.033,5.185,1.918,9.473c0.992,1.442,2.412,0.631,4.373,4.99c0.992,2.204,1.075-1.976,1.075-1.976l-4.457-26.844
					H491.261z"/>
			</g>
			<g>
				<g>
					<defs>
						<path id="SVGID_00000128444204844201271140000018307908773389538712_" d="M507.499,52.639l11.936-2.366
							c0,0-18.281-8.71-24.088-6.129c-5.807,2.581-6.129,3.441-7.205,5.807c-1.075,2.366-4.301,0.538-5.269,3.334
							c-0.968,2.796,3.441,7.743,0,8.818c-3.441,1.075-5.484-1.398-6.452,2.581c-0.968,3.979,0.168,4.194-1.798,6.882
							s-4.968,2.234-5.349,9.021l25.535,0.658l19.694,2.196c0,0-0.876-5.153-2.166-8.97c-1.29-3.818,1.452-4.517-0.538-8.065
							c-1.989-3.549-4.409-2.258-3.226-4.732C509.758,59.199,511.908,58.392,507.499,52.639z"/>
					</defs>
					<use xlink:href="#SVGID_00000128444204844201271140000018307908773389538712_"  style="overflow:visible;fill:#68469A;"/>
					<clipPath id="SVGID_00000114064506837272108410000015604708942503733120_">
						<use xlink:href="#SVGID_00000128444204844201271140000018307908773389538712_"  style="overflow:visible;"/>
					</clipPath>
					
						<circle style="clip-path:url(#SVGID_00000114064506837272108410000015604708942503733120_);fill:#FF7CB3;" cx="511.632" cy="68.029" r="4.476"/>
					<path style="clip-path:url(#SVGID_00000114064506837272108410000015604708942503733120_);fill:#FF7CB3;" d="M499.542,60.233
						c0,1.222-0.99,2.212-2.212,2.212c-1.222,0-2.212-0.99-2.212-2.212c0-1.222,0.99-2.212,2.212-2.212
						C498.551,58.021,499.542,59.011,499.542,60.233z"/>
					<path style="clip-path:url(#SVGID_00000114064506837272108410000015604708942503733120_);fill:#FF7CB3;" d="M491.833,50.894
						c0,1.795-1.455,3.25-3.251,3.25c-1.795,0-3.251-1.455-3.251-3.25s1.455-3.251,3.251-3.251
						C490.378,47.644,491.833,49.099,491.833,50.894z"/>
					<path style="clip-path:url(#SVGID_00000114064506837272108410000015604708942503733120_);fill:#FF7CB3;" d="M507.104,44.98
						c0,1.795-1.455,3.251-3.251,3.251c-1.795,0-3.251-1.455-3.251-3.251c0-1.795,1.455-3.25,3.251-3.25
						C505.648,41.729,507.104,43.185,507.104,44.98z"/>
					
						<circle style="clip-path:url(#SVGID_00000114064506837272108410000015604708942503733120_);fill:#FF7CB3;" cx="473.743" cy="73.262" r="2.517"/>
					<path style="clip-path:url(#SVGID_00000114064506837272108410000015604708942503733120_);fill:#FF7CB3;" d="M502.176,71.595
						c0,1.925-1.56,3.485-3.485,3.485s-3.485-1.56-3.485-3.485c0-1.925,1.56-3.485,3.485-3.485S502.176,69.67,502.176,71.595z"/>
					<path style="clip-path:url(#SVGID_00000114064506837272108410000015604708942503733120_);fill:#FF7CB3;" d="M489.272,67.67
						c0,1.747-1.416,3.162-3.163,3.162s-3.163-1.416-3.163-3.162s1.416-3.163,3.163-3.163S489.272,65.923,489.272,67.67z"/>
				</g>
				<path style="fill:#68469A;" d="M455.667,89.847c0,0,10.969-13.442,33.229-12.582c22.26,0.86,32.153,9.786,37.638,15.378
					c0,0-16.56-9.033-38.498-9.033C466.098,83.609,455.667,89.847,455.667,89.847z"/>
				<g>
					<path style="fill:#252525;" d="M501.854,54.629c1.254-1.703,3.603-2.311,5.646-1.99
						C505.745,53.758,503.886,54.17,501.854,54.629L501.854,54.629z"/>
				</g>
				<g>
					<path style="fill:#252525;" d="M469.274,80.584c12.484-5.788,27.404-4.598,40.008,0.231c1.795,0.771,3.558,1.614,5.223,2.623
						c-1.775-0.797-3.566-1.539-5.406-2.139C496.326,77.229,482.095,76.121,469.274,80.584L469.274,80.584z"/>
				</g>
			</g>
		</g>
		<g style="clip-path:url(#SVGID_00000079451186739622167740000003528571255435307442_);">
			<g>
				<path style="fill:#68230C;" d="M747.679,226.604l-23.379-5.433l-19.676,5.433l18.344,88.037l-1.052,66.364h40.659
					c0,0,5.258-53.278,3.856-71.505C765.03,291.274,747.679,226.604,747.679,226.604z"/>
				<polygon style="fill:#68230C;" points="673.195,226.604 652.164,381.005 695.628,381.005 716.829,226.126 693.174,221.171 				
					"/>
				<g>
					<g>
						<path style="fill:#252525;" d="M724.107,226.604c0.215,4.578-0.093,9.16-0.967,13.667c-0.536,2.284-1.005,4.613-2.494,6.54
							c-1.143,1.481-3.414,1.262-5.109,1.208c-0.567-0.074-1.183-0.173-1.629-0.554c1.049,0.444,2.218,0.225,3.302,0.03
							c0.998-0.236,2.125-0.252,2.732-1.236c1.167-1.793,1.615-4.111,2.075-6.216C722.818,236.197,723.519,230.548,724.107,226.604
							L724.107,226.604z"/>
					</g>
					<g>
						<path style="fill:#252525;" d="M711.951,261.765c0.825-11.763,2.441-23.61,4.813-35.161
							C715.945,238.368,714.317,250.213,711.951,261.765L711.951,261.765z"/>
					</g>
				</g>
			</g>
			<g>
				<g>
					<polygon style="fill:#FFFFFF;" points="747.679,226.604 673.195,226.604 668.696,177.898 668.741,135.635 746.219,135.635 
											"/>
					<g>
						<defs>
							<path id="XMLID_00000121969645751091830140000015049354325914692486_" d="M767.25,145.461c0,0-12.029-7.665-21.031-9.826
								l-3.739,17.509l8.582,15.221l25.535,10.979c0,0,10.749,2.57,16.941-7.711c0,0,3.856-5.375,0-16.007L767.25,145.461z"/>
						</defs>
						<use xlink:href="#XMLID_00000121969645751091830140000015049354325914692486_"  style="overflow:visible;fill:#FFC8B3;"/>
						<clipPath id="XMLID_00000070809260129453719910000000956354538407447209_">
							<use xlink:href="#XMLID_00000121969645751091830140000015049354325914692486_"  style="overflow:visible;"/>
						</clipPath>
						<polygon style="clip-path:url(#XMLID_00000070809260129453719910000000956354538407447209_);fill:#252525;" points="
							765.114,174.406 761.391,172.806 761.391,153.756 765.376,144.316 766.753,146.191 						"/>
						<polygon style="clip-path:url(#XMLID_00000070809260129453719910000000956354538407447209_);fill:#FFFFFF;" points="
							765.964,143.241 760.94,175.722 742.48,171.749 738.624,146.98 746.102,131.557 						"/>
					</g>
					<g>
						<defs>
							<path id="SVGID_00000134956377649734297790000015767767841212011429_" d="M668.741,135.635c0,0-22.185,16.486-41.113,47.681
								l12.794,13.144l12.794-2.629l15.525-16.649l5.856-2.454l2.103-25.237L668.741,135.635z"/>
						</defs>
						<use xlink:href="#SVGID_00000134956377649734297790000015767767841212011429_"  style="overflow:visible;fill:#FFC8B3;"/>
						<clipPath id="SVGID_00000078043914465080577690000000797875076215334028_">
							<use xlink:href="#SVGID_00000134956377649734297790000015767767841212011429_"  style="overflow:visible;"/>
						</clipPath>
						<polygon style="clip-path:url(#SVGID_00000078043914465080577690000000797875076215334028_);fill:#252525;" points="
							659.13,187.489 642.435,162.212 643.445,160.965 654.487,172.231 662.12,184.283 						"/>
						<polygon style="clip-path:url(#SVGID_00000078043914465080577690000000797875076215334028_);fill:#FFFFFF;" points="
							663.03,185.419 642.35,159.598 667.47,132.141 673.078,141.488 673.429,176.423 						"/>
					</g>
				</g>
				<path style="fill:#FFC8B3;" d="M666.674,209.693l-13.458-15.861l-13.086-7.01l-12.502-3.505c0,0-4.674,10.632,2.103,19.746
					c6.777,9.113,35.29,32.598,35.29,32.598l4.318-14.371L666.674,209.693z"/>
			</g>
			<g>
				<defs>
					<path id="XMLID_00000166655930508069493530000014841038012661000894_" d="M716.829,131.09c0,0,16.07,0.561,29.389,4.545
						l16.357,110.54c0,0-17.947,8.94-31.561-20.247c-2.362-5.064-3.902-10.469-4.697-16
						C724.212,195.271,719.23,159.31,716.829,131.09z"/>
				</defs>
				<use xlink:href="#XMLID_00000166655930508069493530000014841038012661000894_"  style="overflow:visible;fill:#A7A4FE;"/>
				<clipPath id="XMLID_00000111181115090404232760000013218049986605165194_">
					<use xlink:href="#XMLID_00000166655930508069493530000014841038012661000894_"  style="overflow:visible;"/>
				</clipPath>
				<path style="clip-path:url(#XMLID_00000111181115090404232760000013218049986605165194_);fill:#492B71;" d="M719.848,161.801
					l14.252,7.303c0.981,0.503,2.169,0.365,3.009-0.35l13.071-11.122l1.538,11.314l-14.179,8.748
					c-0.731,0.451-1.633,0.531-2.432,0.215l-15.907-6.283L719.848,161.801z"/>
				<polygon style="clip-path:url(#XMLID_00000111181115090404232760000013218049986605165194_);fill:#492B71;" points="
					727.03,173.258 726.058,194.957 729.314,195.285 731.542,174.815 				"/>
				<polygon style="clip-path:url(#XMLID_00000111181115090404232760000013218049986605165194_);fill:#492B71;" points="
					733.269,175.727 734.944,196.309 737.985,195.991 737.324,175.662 				"/>
				<polygon style="clip-path:url(#XMLID_00000111181115090404232760000013218049986605165194_);fill:#492B71;" points="
					739.074,174.729 744.132,195.133 747.046,194.245 742.887,172.612 				"/>
				<polygon style="clip-path:url(#XMLID_00000111181115090404232760000013218049986605165194_);fill:#492B71;" points="
					743.837,172.041 750.346,191.918 753.436,190.21 747.543,169.6 				"/>
			</g>
			<g>
				<defs>
					<path id="XMLID_00000181083994901904261170000005357593359354435724_" d="M700.782,130.346c0,0-16.516,0.195-32.041,5.289
						c0,0,7.288,35.413,0,41.548l-4.659,73.257c0,0,34.669-0.526,36.701-35.051C702.814,180.862,700.782,130.346,700.782,130.346z"
						/>
				</defs>
				<use xlink:href="#XMLID_00000181083994901904261170000005357593359354435724_"  style="overflow:visible;fill:#A7A4FE;"/>
				<clipPath id="XMLID_00000166652483781620379430000009476950662958696607_">
					<use xlink:href="#XMLID_00000181083994901904261170000005357593359354435724_"  style="overflow:visible;"/>
				</clipPath>
				<path style="clip-path:url(#XMLID_00000166652483781620379430000009476950662958696607_);fill:#492B71;" d="M703.339,160.708
					l-14.477,8.891c-0.997,0.612-2.264,0.563-3.211-0.124l-14.735-10.695l-0.701,12.093l15.712,8.093
					c0.81,0.417,1.771,0.428,2.59,0.029l16.311-7.947L703.339,160.708z"/>
				<polygon style="clip-path:url(#XMLID_00000166652483781620379430000009476950662958696607_);fill:#492B71;" points="
					696.68,173.414 699.484,196.285 696.066,196.898 692.035,175.43 				"/>
				<polygon style="clip-path:url(#XMLID_00000166652483781620379430000009476950662958696607_);fill:#492B71;" points="
					690.283,176.536 690.195,198.443 686.953,198.355 685.989,176.798 				"/>
				<polygon style="clip-path:url(#XMLID_00000166652483781620379430000009476950662958696607_);fill:#492B71;" points="
					684.061,175.955 680.381,197.95 677.226,197.249 679.855,174.027 				"/>
				<polygon style="clip-path:url(#XMLID_00000166652483781620379430000009476950662958696607_);fill:#492B71;" points="
					678.803,173.502 673.546,195.058 670.138,193.504 674.685,171.223 				"/>
			</g>
			<polygon style="fill:#252525;" points="702.113,119.523 697.731,123.203 700.009,131.09 704.625,126.65 			"/>
			<g>
				<path style="fill:#FFC8B3;" d="M701.729,120.309l-0.492,6.925l-1.227,8.412l8.588,11.917c0,0,7.978-13.495,8.283-14.108
					s-0.834-9.464-0.834-9.464L701.729,120.309z"/>
				<path style="fill:#252525;" d="M701.619,121.847c0,0,4.568,8.265,13.703,7.045l0.547-2.535l-0.349-1.13l-7.05-1.98l-6.742-2.938
					L701.619,121.847z"/>
			</g>
			<g>
				<path style="fill:#252525;" d="M653.216,193.831c-2.326-1.61-4.067-3.736-5.172-6.342
					C650.375,189.095,652.107,191.229,653.216,193.831L653.216,193.831z"/>
			</g>
			<g>
				<g>
					<path style="fill:#E20131;" d="M686.427,132.404c0,0,0,3.856-1.49,8.237c-1.49,4.381-1.84,17.876,4.732,20.242
						c0,0-3.505-6.66-2.015-11.041c1.49-4.382,6.134-5.784,6.134-5.784L686.427,132.404z"/>
					<path style="fill:#252525;" d="M686.358,133.736c0,0,3.677,6.794,4.502,11.866c0,0,0.386-0.305,0.865-0.577l-1.748-8.853
						L686.358,133.736z"/>
				</g>
				<g>
					<path style="fill:#E20131;" d="M715.521,125.227c0,0,0.203,18.481-9.845,16.845c0,0,1.986-3.505-3.038-9.464
						c-5.024-5.959,0-14.137,0-14.137l-3.715-1.574c0,0-15.213-0.48-17.433,15.534c0,0,4.761-2.085,8.341,6.72
						c3.859,9.492,3.343,19.395,6.381,26.522c3.038,7.127,9.23,20.797,24.886,23.718c0,0-8.179-6.777-1.636-16.357
						c6.543-9.581,20.096-15.89,10.048-37.388c0,0,2.205-9.69-5.908-14.542l-6.36,0.288L715.521,125.227z"/>
					<g>
						<path style="fill:#252525;" d="M697.731,130.469c4.772,9.298,8.872,14.717,20.234,12.76
							C707.143,147.245,700.555,140.42,697.731,130.469L697.731,130.469z"/>
					</g>
					<g>
						<path style="fill:#252525;" d="M729.511,135.646c-0.616,8.144-7.383,16.203-16.02,15.598
							C721.899,149.992,727.092,143.389,729.511,135.646L729.511,135.646z"/>
					</g>
					<g>
						<path style="fill:#252525;" d="M692.106,146.644c3.469,6.246,10.798,22.036,18.722,22.086
							c1.397-0.021,2.734-0.674,3.903-1.537c-0.997,1.055-2.333,1.874-3.856,2.097C701.936,169.926,694.523,153.805,692.106,146.644
							L692.106,146.644z"/>
					</g>
				</g>
			</g>
			<g>
				<g>
					<path style="fill:#FFC8B3;" d="M730.679,90.605c0,0,2.278,34.701-16.649,34.701s-21.031-25.938-21.031-25.938l3.33-16.474
						l24.361,1.052L730.679,90.605z"/>
					<g>
						<path style="fill:#252525;" d="M704.642,100.153c-0.05,1.201,0.7,2.207,1.674,2.248c0.975,0.04,1.805-0.9,1.855-2.101
							c0.05-1.201-0.7-2.207-1.674-2.248C705.523,98.011,704.692,98.952,704.642,100.153z"/>
						<path style="fill:#252525;" d="M720.988,101.505c-0.05,1.201,0.7,2.207,1.674,2.248c0.974,0.04,1.805-0.9,1.855-2.101
							c0.05-1.201-0.7-2.207-1.674-2.248C721.869,99.363,721.038,100.304,720.988,101.505z"/>
						<g>
							<path style="fill:#252525;" d="M715.752,99.434c0.943,3.059,1.376,6.235,1.66,9.411c0.011,0.124-0.035,0.242-0.115,0.326
								c-1.078,1.112-2.646,1.296-4.057,0.961c-0.44-0.105-0.858-0.272-1.254-0.467c0.444,0.031,0.876,0.052,1.301,0.044
								c1.121-0.025,2.444-0.338,3.175-1.192c0,0-0.109,0.39-0.109,0.39C715.884,105.775,715.56,102.608,715.752,99.434
								L715.752,99.434z"/>
						</g>
						<g>
							<path style="fill:#252525;" d="M710.003,95.192c-2.572-1.687-5.192-1.329-7.899-0.468
								C704.012,92.2,708.644,92.142,710.003,95.192L710.003,95.192z"/>
						</g>
						<g>
							<path style="fill:#252525;" d="M720.266,96.292c1.953-3.046,6.827-3.108,8.353,0.371
								C725.926,94.679,723.263,94.803,720.266,96.292L720.266,96.292z"/>
						</g>
						<path style="fill:#68230C;" d="M716.498,114.288l-5.771-0.638c-0.676-0.075-1.271,0.46-1.249,1.14
							c0.051,1.605,0.606,4.184,3.613,4.39c2.793,0.191,3.923-2.002,4.366-3.474C717.657,115.042,717.187,114.365,716.498,114.288z"
							/>
						<path style="fill:#DB6565;" d="M700.857,105.817c-0.07,0.836,1.358,1.637,3.189,1.789c1.831,0.152,3.371-0.402,3.441-1.238
							c0.069-0.836-1.358-1.637-3.189-1.789S700.926,104.981,700.857,105.817z"/>
						<path style="fill:#DB6565;" d="M720.985,107.914c-0.069,0.836,1.358,1.637,3.189,1.789c1.831,0.152,3.371-0.402,3.44-1.238
							c0.069-0.836-1.358-1.636-3.189-1.789S721.055,107.078,720.985,107.914z"/>
					</g>
				</g>
				<path style="fill:#252525;" d="M687.041,95.22c0,0-0.292-6.543,0.759-10.399l10.282,1.753l-2.573,16.158
					c-0.06,0.374-0.518,0.521-0.785,0.252L687.041,95.22z"/>
				<g>
					<path style="fill:#FFC8B3;" d="M694.708,100.095c-0.135-1.561-0.581-3.103-1.457-4.401c-1.209-1.791-3.888-3.277-6.736-1.496
						c-5.888,3.684,1.402,19.191,8.85,13.495L694.708,100.095z"/>
					<g>
						<g>
							<path style="fill:#252525;" d="M692.112,104.884c-1.191-2.823-2.175-5.403-4.494-7.438
								C690.852,98.022,692.614,101.856,692.112,104.884L692.112,104.884z"/>
						</g>
						<g>
							<path style="fill:#252525;" d="M687.618,100.854c0.453-0.647,1.28-0.81,2.007-0.683c0.717,0.152,1.387,0.61,1.62,1.363
								c-0.404,0.002-0.713-0.053-1.01-0.094C689.322,101.291,688.531,101.123,687.618,100.854L687.618,100.854z"/>
						</g>
					</g>
				</g>
			</g>
			<g>
				<path style="fill:#68230C;" d="M730.363,76.524c0,0,5.223-6.774,15.154-2.684c9.931,4.089,6.777,20.563-4.673,18.577
					l-12.385-8.295L730.363,76.524z"/>
				<g>
					<defs>
						<path id="SVGID_00000000945700592797439900000002553890989053806751_" d="M730.765,82.894c0,0-0.962-22.608-4.117-24.01
							c-3.155-1.402-2.278-0.701-6.309,0c-4.031,0.701-12.449,1.028-18.402-1.314c-4.389-1.727-4.995-1.84-6.572-1.577
							c-1.577,0.263-2.716,1.84-3.768,4.031c-1.052,2.191-4.557,19.015-4.557,19.015S704.475,84.559,730.765,82.894z"/>
					</defs>
					<use xlink:href="#SVGID_00000000945700592797439900000002553890989053806751_"  style="overflow:visible;fill:#68230C;"/>
					<clipPath id="SVGID_00000176726623755398232600000001367946776433872809_">
						<use xlink:href="#SVGID_00000000945700592797439900000002553890989053806751_"  style="overflow:visible;"/>
					</clipPath>
					<path style="clip-path:url(#SVGID_00000176726623755398232600000001367946776433872809_);fill:#FFC000;" d="M731.906,76.848
						c0,0-26.185-0.405-44.288-4.321l-1.191,7.376l27.515,4.449h19.366L731.906,76.848z"/>
				</g>
				<g>
					<polygon style="fill:#68230C;" points="740.844,92.416 689.319,87.743 687.041,79.038 730.765,82.894 					"/>
					<path style="fill:#252525;" d="M720.266,90.55c0,0-8.38-1.886-16.743-10.058l-0.651,5.029l9.114,4.278L720.266,90.55z"/>
				</g>
				<path style="fill:#68230C;" d="M673.274,82.092c-1.8-0.634-3.235-2.044-3.831-3.857c-1.128-3.433-1.697-8.945,4.804-11.522
					c11.567-4.586,23.718,6.543,27.691,11.684c3.972,5.141,6.781,10.111,15.425,11.891l-28.043-2.544L673.274,82.092z"/>
			</g>
			<g>
				<polygon style="fill:#FFC8B3;" points="756.617,110.76 766.432,148.265 783.432,158.78 793.538,155.626 771.339,108.19 				"/>
				<g>
					<path style="fill:#FFC8B3;" d="M742.48,92.416c0,0-1.723,0.661,0.818,3.193c2.541,2.532,3.768,2.396,4.907,5.969
						s3.593,7.254,8.412,9.182h8.763l5.959-2.57c0,0-1.353-11.201-2.473-14.217c0,0-0.682-1.789-2.609-3.104
						c0,0,0.088-4.644-1.753-6.046c-1.84-1.402-2.541-1.615-2.541-1.615s-1.052-4.315-4.557-5.25
						c-3.505-0.934-8.325-0.847-10.165-0.409c-1.84,0.438-10.253,5.959-9.814,6.747c0.438,0.789,1.314,2.979,5.258,2.278
						c0,0,1.227,2.015,3.593,1.665c0,0,0.263,1.991,3.943,2.047c3.68,0.056,4.732,0,4.732,0s2.103,2.086,1.665,4.27
						c-0.438,2.183-1.068,6.44-2.243,5.67C753.2,99.456,749.461,89.671,742.48,92.416z"/>
					<g>
						<path style="fill:#252525;" d="M766.256,90.868c-3.157-1.851-5.977-4.242-9.211-5.916c-3.24,0.147-6.677,1.221-9.717,2.415
							c-0.398,0.216-0.9,0.41-1.051,0.872c0.044-0.513,0.519-0.849,0.886-1.143c2.014-1.392,4.371-2.171,6.71-2.824
							c1.081-0.219,2.256-0.635,3.465-0.421C760.745,85.53,763.532,88.264,766.256,90.868L766.256,90.868z"/>
					</g>
					<g>
						<path style="fill:#252525;" d="M761.963,83.207c-2.931-0.831-5.741-2.166-8.705-2.747c-3.503,0.908-6.798,3.011-9.777,5.074
							c-0.315,0.294-0.771,0.577-0.796,1.041c-0.101-0.48,0.307-0.904,0.572-1.266c2.601-2.7,5.888-4.92,9.549-5.917
							c0.537-0.115,1.11,0.033,1.601,0.191C757.08,80.484,759.561,81.752,761.963,83.207L761.963,83.207z"/>
					</g>
					<g>
						<path style="fill:#252525;" d="M763.54,96.662c-3.078-1.978-5.359-4.699-8.588-6.376c1.902-0.116,3.617,1.073,5.042,2.185
							C761.4,93.667,762.662,95.021,763.54,96.662L763.54,96.662z"/>
					</g>
				</g>
				<g>
					<path style="fill:#252525;" d="M765.114,143.229c1.634,3.883,2.51,7.95,2.603,12.163
						C766.077,151.51,765.212,147.441,765.114,143.229L765.114,143.229z"/>
				</g>
			</g>
		</g>
		<g style="clip-path:url(#SVGID_00000079451186739622167740000003528571255435307442_);">
			<path style="fill:#FFC000;" d="M554.768,240.928l-32.891,49.728c-1.588,2.401,0.538,5.519,3.353,4.917l8.025-1.716
				c2.064-0.441,3.986,1.192,3.883,3.3l-0.73,14.993c-0.117,2.399,2.344,4.075,4.533,3.086l15.613-7.047
				c1.767-0.798,3.833,0.139,4.398,1.994l4.593,15.092c0.644,2.117,3.185,2.965,4.971,1.66l15.854-11.579
				c1.46-1.066,3.512-0.719,4.54,0.768l8.1,11.717c1.562,2.259,5.054,1.646,5.753-1.01l18.151-68.975L554.768,240.928z"/>
			<g>
				<path style="fill:#FE712B;" d="M602.115,272.251l13.929,132.573c0,0-0.125,17.292,9.093,26.419
					c9.218,9.126,21.549,21.135,32.386,9.607c10.837-11.528-3.363-21.135-3.363-21.135l-14.2-14.41l-1.618-142.509l-22.297,4.172
					L602.115,272.251z"/>
				<g>
					<path style="fill:#252525;" d="M624.286,333.591c5.238,0.069,10.133-0.986,14.822-3.237
						C635.371,334.107,629.251,335.41,624.286,333.591L624.286,333.591z"/>
				</g>
				<g>
					<path style="fill:#252525;" d="M626.154,343.306c4.56-0.392,8.965-0.613,13.07-2.739
						C636.119,344.177,630.478,344.665,626.154,343.306L626.154,343.306z"/>
				</g>
				<g>
					<path style="fill:#252525;" d="M628.645,352.773c3.777-0.374,7.336-0.508,10.69-2.364
						C637.071,353.711,632.14,354.166,628.645,352.773L628.645,352.773z"/>
				</g>
			</g>
			<g>
				<path style="fill:#FE712B;" d="M594.568,275.27l-36.781,125.144c0,0-2.906,16.885-13.485,23.111
					c-10.579,6.226-24.696,14.36-33.237-0.007c-8.541-14.367,6.977-19.62,6.977-19.62l16.358-9.933l28.86-150.57l18.66,22.699
					L594.568,275.27z"/>
				<g>
					<path style="fill:#252525;" d="M556.774,331.348c-3.313,1.187-7.458,0.443-9.974-2.071
						C550.149,330.256,553.291,330.806,556.774,331.348L556.774,331.348z"/>
				</g>
				<g>
					<path style="fill:#252525;" d="M554.756,339.569c-2.978,1.746-7.141,1.246-9.741-0.982
						C548.289,339.202,551.417,339.617,554.756,339.569L554.756,339.569z"/>
				</g>
				<g>
					<path style="fill:#252525;" d="M551.533,347.79c-2.522,1.389-6.012,0.872-8.064-1.14
						C546.249,347.077,548.695,347.463,551.533,347.79L551.533,347.79z"/>
				</g>
			</g>
			<g>
				<path style="fill:#FFC000;" d="M575.084,142.763c0,0-22.392-59.135,20.428-64.274c49.824-5.979,32.884,64.261,32.884,64.261
					l-29.782,11.97L575.084,142.763z"/>
				<path style="fill:#E20131;" d="M585.742,62.752c-2.347,5.116-4.924,15.323,7.558,21.613c1.102,0.555,2.344,0.804,3.572,0.69
					l5.088-0.471c2.054-0.19,3.892-1.348,4.949-3.119c2.222-3.723,6.226-10.433,9.406-15.773c0.627-1.052-0.025-2.403-1.24-2.557
					c-2.072-0.262-5.409,0.293-9.45,4.498c-0.955,0.993-2.634,0.528-2.903-0.823c-0.332-1.67-0.7-3.748-0.926-5.723
					c-0.153-1.342-1.738-1.97-2.774-1.103c-1.568,1.314-3.553,3.414-5.045,6.476c-0.569,1.168-2.209,1.27-2.924,0.186
					c-0.682-1.035-1.477-2.362-2.243-3.928C588.181,61.432,586.339,61.451,585.742,62.752z"/>
			</g>
			<g>
				<path style="fill:#FFC000;" d="M575.084,142.763c0,0-11.958-1.246-33.382,21.175c-20.333,21.278-27.651,28.421-42.612,36.334
					c-1.347,0.712-1.58,2.597-0.394,3.554c2.355,1.899,6.917,4.079,14.734,2.609c2.089-0.393,3.449,2.189,1.914,3.659
					c-1.923,1.842-4.421,3.823-7.463,5.398c-1.483,0.768-1.634,2.807-0.25,3.742c2.876,1.942,8.421,3.739,17.803-0.065
					c1.929-0.782,3.721,1.334,2.662,3.126c-1.068,1.807-2.547,3.756-4.541,5.347c-1.45,1.157-0.84,3.466,0.983,3.807
					c6.772,1.265,19.517,1.07,32.609-12.703l20.926-44.842L575.084,142.763z"/>
				<g>
					<path style="fill:#FE712B;" d="M539.46,182.373c-1.459,1.31-2.974,2.684-3.864,4.43c-0.266,0.555-0.38,1.17-0.105,1.544
						c1.565,1.518,4.945,1.395,6.291-0.426l0.889,0.759c-1.253,1.384-3.111,3.036-3.508,4.858c0.027,0.065-0.014,0.039,0.131,0.109
						c1.694,0.401,3.156-1.156,4.137-2.4c0.161-0.241,0.494-0.302,0.726-0.125c0.174,0.132,0.239,0.356,0.177,0.553
						c-0.418,1.51-0.924,3.63,0.12,4.935c1.295,1.216,3.499,0.301,5.002-0.225c-0.803,0.462-1.648,0.869-2.569,1.111
						c-4.055,1.14-4.325-3.335-3.519-6.116c0,0,0.903,0.428,0.903,0.428c-1.164,1.678-3.097,3.61-5.372,2.958
						c-0.43-0.108-0.875-0.59-0.919-1.055c-0.061-0.911,0.305-1.41,0.577-1.947c0.909-1.494,2.096-2.731,3.323-3.953
						c0.501-0.51,1.322,0.239,0.864,0.784c-1.494,1.867-4.01,2.229-6.097,1.447C531.596,188.408,537.052,183.791,539.46,182.373
						L539.46,182.373z"/>
				</g>
			</g>
			<g>
				<path style="fill:#FFC000;" d="M628.396,142.75c0,0,44.452,15.66,75.795,6.71c2.089-0.597,3.903,1.527,2.928,3.469
					c-2.411,4.8-8.704,11.764-25.115,14.545c-1.647,0.279-2.571,2.072-1.803,3.555c1.946,3.759,6.744,10.148,18.03,14.68
					c1.969,0.791,2.12,3.524,0.232,4.492c-3.835,1.966-10.075,4.132-18.358,3.578c-1.83-0.122-3.153,1.758-2.414,3.436
					c1.391,3.159,3.815,7.576,7.446,10.597c1.683,1.401,0.927,4.118-1.247,4.378c-8.85,1.06-25.334,0.464-43.286-13.126
					l-16.193-28.898L628.396,142.75z"/>
				<g>
					<path style="fill:#FE712B;" d="M656.049,163.222c2.062,0.728,4.137,1.584,5.873,2.962c0.546,0.493,1.199,1.057,1.279,2.045
						c-0.527,3.067-5.508,3.46-8.012,3.513c0,0,0.264-1.104,0.264-1.104c1.976,1.046,5.566,2.948,4.49,5.712
						c-0.72,1.277-1.877,1.973-3.227,2.281c-1.318,0.234-2.589,0.026-3.795-0.502l0.62-0.856c2.57,2.818,5.518,8.019-0.53,8.486
						c-1.251,0.064-2.492-0.29-3.502-0.956c1.62,0.774,3.522,0.855,5.107,0.038c3.113-1.473-0.467-5.219-1.852-6.825
						c-0.408-0.412,0.11-1.112,0.62-0.856c1.427,0.573,3.2,0.632,4.485-0.282c2.955-1.828-1.104-4.266-2.906-5.189
						c-0.295-0.14-0.417-0.498-0.268-0.789c0.105-0.205,0.316-0.321,0.532-0.316c2.029,0.018,4.252-0.122,6.063-1.089
						c0.471-0.277,1.087-0.735,1.137-1.267c0.019-0.506-0.444-1.1-0.937-1.561C659.912,165.211,657.968,164.193,656.049,163.222
						L656.049,163.222z"/>
				</g>
			</g>
			<g>
				<path style="fill:#FFC8B3;" d="M581.312,105.521c0,0-2.4,32.378,17.563,31.639c20.179-0.747,16.94-31.639,16.94-31.639
					S613.2,92.443,598.6,92.443C583.305,92.443,581.312,105.521,581.312,105.521z"/>
				<path style="fill:#252525;" d="M610.615,96.726c-1.434,0.896-3.52,2.037-5.264,2.249c-2.836,0.359-2.07-2.151-2.004-2.412
					c-0.359,0.196-6.128,3.341-8.963,2.917c-2.738-0.407,0.538-3.259,0.961-3.634c-0.554,0.342-5.264,3.178-8.246,2.95
					c-1.401-0.114-1.092-1.271-0.293-2.542c2.591-2.151,6.356-3.813,11.799-3.813C604.194,92.44,608.023,94.363,610.615,96.726z"/>
				<g>
					<path style="fill:#252525;" d="M609.113,111.818c-0.04,1.281-0.915,2.293-1.955,2.26c-1.039-0.033-1.849-1.097-1.809-2.378
						c0.04-1.281,0.915-2.293,1.955-2.26C608.344,109.473,609.154,110.537,609.113,111.818z"/>
					<path style="fill:#252525;" d="M591.628,111.988c-0.04,1.281-0.915,2.293-1.954,2.26c-1.039-0.033-1.849-1.097-1.809-2.378
						c0.04-1.281,0.915-2.293,1.955-2.26S591.668,110.707,591.628,111.988z"/>
					<g>
						<path style="fill:#252525;" d="M597.357,110.193c-0.042,3.389-0.633,6.731-1.375,10.026l-0.086-0.423
							c0.712,0.964,2.093,1.399,3.284,1.514c0.451,0.042,0.913,0.053,1.387,0.054c-0.437,0.176-0.894,0.322-1.37,0.399
							c-1.527,0.246-3.179-0.071-4.239-1.337c-0.084-0.103-0.116-0.232-0.097-0.354C595.41,116.716,596.117,113.373,597.357,110.193
							L597.357,110.193z"/>
					</g>
					<g>
						<path style="fill:#252525;" d="M603.799,106.128c1.682-3.138,6.6-2.716,8.435,0.115
							C609.477,105.103,606.528,104.563,603.799,106.128L603.799,106.128z"/>
					</g>
					<g>
						<path style="fill:#252525;" d="M592.801,106.501c-3.072-1.816-5.895-2.153-8.91-0.254
							C585.784,102.666,590.962,103.112,592.801,106.501L592.801,106.501z"/>
					</g>
					<path style="fill:#68230C;" d="M595.411,125.929l6.186-0.231c0.725-0.027,1.315,0.587,1.24,1.309
						c-0.179,1.703-0.969,4.402-4.183,4.387c-2.984-0.014-4.016-2.433-4.373-4.032C594.12,126.641,594.673,125.956,595.411,125.929z
						"/>
					<path style="fill:#DB6565;" d="M612.699,118.135c0.009,0.894-1.571,1.635-3.53,1.654c-1.958,0.02-3.553-0.689-3.562-1.583
						c-0.009-0.894,1.571-1.635,3.53-1.654S612.69,117.241,612.699,118.135z"/>
					<path style="fill:#DB6565;" d="M590.503,118.803c0.009,0.894-1.571,1.635-3.53,1.654c-1.958,0.02-3.553-0.689-3.562-1.583
						c-0.009-0.894,1.571-1.635,3.53-1.654C588.9,117.201,590.495,117.909,590.503,118.803z"/>
				</g>
			</g>
			<g>
				<path style="fill:#FFC000;" d="M565.368,175.647l-8.221,43.098c0,0-16.691,66.765,38.116,68.758
					c54.807,1.993,51.07-43.596,48.579-64.274c-2.491-20.677-3.239-24.165-3.239-24.165l-12.207-56.314h-36.372l-16.94,0.012
					L565.368,175.647z"/>
				<g>
					<path style="fill:#252525;" d="M557.147,218.745c1.615-14.53,3.75-29.146,8.221-43.098
						C562.571,189.784,560.374,204.698,557.147,218.745L557.147,218.745z"/>
				</g>
				<g>
					<path style="fill:#252525;" d="M640.603,199.064c-2.197-9.049-3.575-18.231-4.111-27.528
						C638.697,180.584,640.061,189.768,640.603,199.064L640.603,199.064z"/>
				</g>
				<g>
					<path style="fill:#252525;" d="M554.758,240.928c1.068,36.294,22.123,50.305,56.854,45.048
						c9.381-1.519,18.504-5.9,24.512-13.426c-5.654,7.926-14.901,12.614-24.34,14.35
						C576.813,292.875,554.151,277.779,554.758,240.928L554.758,240.928z"/>
				</g>
				<g>
					<g>
						<path style="fill:#FE712B;" d="M578.977,150.236c-2.476,1.725-5.193,3.464-6.873,5.987c-0.234,0.409-0.383,0.863-0.29,1.206
							c1.324,2.079,4.607,0.441,6.277-0.535c1.711-1.046,3.314-2.344,4.772-3.718c0.236-0.225,0.61-0.217,0.836,0.02
							c0.193,0.203,0.212,0.51,0.065,0.735c-1.767,2.713-3.493,5.515-4.813,8.471c-0.419,1.109-1.05,2.342-0.727,3.371
							c0.068,0.061,0.106,0.142,0.308,0.147c1.5,0.061,2.67-1.046,3.649-2.164c1.361-1.619,2.435-3.549,3.3-5.514
							c0.088-0.259,0.469-0.294,0.603-0.059c1.262,2.081,4.662,6.623,6.066,2.142c-1.058,4.835-5.235,0.432-6.639-1.781
							c0,0,0.603-0.058,0.603-0.058c-1.419,3.228-3.011,7.319-6.722,8.473c-2.488,0.545-2.763-1.586-2.124-3.419
							c1.242-3.718,3.39-7.016,5.518-10.272c0,0,0.901,0.755,0.901,0.755c-2.354,2.129-4.929,4.131-8.018,5.053
							c-1.518,0.405-3.951,0.392-4.583-1.474C570.814,154.58,576.69,151.565,578.977,150.236L578.977,150.236z"/>
					</g>
					<g>
						<path style="fill:#FE712B;" d="M612.982,160.886c1.054,0.818,6.229,5.313,7.08,3.3c0.434-1.787-1.817-3.331-3.108-4.308
							c0,0,0.656-0.971,0.656-0.971c12.662,8.315,12.436,3.299,3.592-5.683c2.775,2.189,5.769,4.603,7.108,7.998
							c1.42,6.954-9.13,0.219-11.363-1.348c-0.28-0.175-0.362-0.55-0.177-0.825c0.185-0.276,0.565-0.342,0.833-0.146
							c1.567,1.251,3.603,2.762,3.469,5.051C619.99,168.328,614.387,162.468,612.982,160.886L612.982,160.886z"/>
					</g>
					<g>
						<path style="fill:#FE712B;" d="M626.808,188.165c1.666,4.383,3.138,8.869,4.049,13.482c0.36,2.357,0.961,4.851,0.063,7.207
							c-0.344,0.9-1.419,1.461-2.387,1.308c-1.814-0.169-3.046-1.627-3.971-3.002c-1.722-2.738-2.697-5.764-3.467-8.875
							c-0.074-0.316,0.122-0.633,0.438-0.707c0.32-0.076,0.641,0.127,0.709,0.449c0.404,1.918,0.769,3.828,0.999,5.774
							c0.104,1.801,1.221,7.8-1.477,8.087c-1.476-0.033-2.546-1.397-3.208-2.427c-1.063-1.728-1.767-3.559-2.32-5.465l0.978-0.193
							c0.112,2.603,1.388,13.077-1.113,14.13c-1.133,0.265-1.947-0.731-2.44-1.572c-0.951-1.689-1.433-3.546-1.801-5.4
							c0.545,1.733,1.86,6.857,4.114,6.49c0.656-0.354,0.685-1.577,0.802-2.298c0.286-3.721-0.131-7.529-0.555-11.236
							c-0.075-0.606,0.82-0.78,0.978-0.193c0.578,1.784,1.274,3.599,2.268,5.15c0.606,0.889,1.284,1.786,2.264,1.892
							c0.09,0.014,0.11-0.035,0.202-0.117c0.871-1.984,0.297-4.493,0.112-6.696c-0.265-1.892-0.563-3.798-0.95-5.668l1.15-0.248
							c0.898,3.387,2.577,10.283,6.384,11.112C633.515,209.64,627.565,190.929,626.808,188.165L626.808,188.165z"/>
					</g>
					<g>
						<path style="fill:#FE712B;" d="M565.898,218.901c-0.409,3.049-2.517,14.585,0.654,15.936c3.344,0.369,4.392-4.396,4.857-7.039
							c0.111-0.708,1.178-0.58,1.124,0.132c-0.139,2.297-0.733,10.467,2.278,10.719c4.034-0.564,3.514-13.162,3.462-16.463
							c-0.029-0.353,0.5-0.477,0.631-0.151c0.685,1.414,1.473,3.03,2.821,3.898c1.688,0.966,2.786-1.25,3.324-2.548
							c-1.641,5.606-5.044,2.501-6.747-1.079c0,0,0.631-0.161,0.631-0.161c0.264,5.228,0.834,10.776-1.367,15.698
							c-0.62,1.369-2.448,2.512-3.947,1.676c-3.141-2.092-2.386-8.425-2.212-11.711c0,0,1.124,0.132,1.124,0.132
							c-0.188,1.19-0.462,2.318-0.868,3.44c-0.621,1.662-1.57,3.544-3.368,4.265c-1.318,0.475-2.962,0.087-3.476-1.289
							c-1.085-2.781-0.609-5.878-0.277-8.707C564.876,223.373,565.315,221.118,565.898,218.901L565.898,218.901z"/>
					</g>
					<g>
						<path style="fill:#FE712B;" d="M604.979,255.366c0.98,1.916,4.969,10.952,7.541,9.504c1.04-0.863,1.362-2.283,1.312-3.646
							c-0.078-1.89-0.638-3.843-1.4-5.605c-0.135-0.306,0.004-0.664,0.31-0.799c0.271-0.119,0.584-0.021,0.746,0.214
							c1.844,2.645,3.722,5.451,6.158,7.561c0.386,0.317,0.865,0.594,1.151,0.602c0.127-0.015,0.174,0.004,0.271-0.14
							c0.51-1.094,0.319-2.535,0.394-3.8c-0.019-3.311-0.369-6.604-0.974-9.869c1.299,4.297,2.021,8.746,1.756,13.263
							c-0.785,3.774-4.541-0.158-5.727-1.581c-1.468-1.714-2.8-3.498-4.042-5.371l1.056-0.585c1.13,2.873,2.216,6.311,0.697,9.281
							c-0.528,1.032-1.851,2.053-3.035,1.452c-1.105-0.51-1.734-1.384-2.352-2.209C607.105,261.112,605.952,258.244,604.979,255.366
							L604.979,255.366z"/>
					</g>
				</g>
			</g>
		</g>
		<g style="clip-path:url(#SVGID_00000079451186739622167740000003528571255435307442_);">
			<rect x="588.443" y="115.056" style="fill:#E20131;" width="19.145" height="2.154"/>
			<g>
				<g>
					<polygon style="fill:#E20131;" points="611.623,104.116 615.296,111.558 623.51,112.752 617.566,118.545 618.969,126.725 
						611.623,122.863 604.277,126.725 605.68,118.545 599.737,112.752 607.95,111.558 					"/>
					<polygon style="fill:#FFDF78;" points="617.786,124.447 617.893,125.069 615.326,123.718 615.32,123.718 614.329,123.192 
						614.323,123.192 611.622,121.772 605.35,125.069 606.551,118.09 601.475,113.142 607.023,112.338 607.612,112.253 
						608.486,112.124 608.915,111.256 610.008,109.042 611.622,105.772 614.758,112.124 621.768,113.142 616.698,118.09 
						616.907,119.296 					"/>
				</g>
				<g style="opacity:0.5;">
					<polygon style="fill:#FFFFFF;" points="617.786,124.447 608.915,111.256 610.008,109.042 616.907,119.296 					"/>
				</g>
				<g style="opacity:0.5;">
					<polygon style="fill:#FFFFFF;" points="615.32,123.718 614.329,123.192 614.323,123.192 607.023,112.338 607.612,112.253 					
						"/>
				</g>
			</g>
			<g>
				<g>
					<polygon style="fill:#E20131;" points="584.746,104.116 588.419,111.558 596.633,112.752 590.689,118.545 592.092,126.725 
						584.746,122.863 577.4,126.725 578.803,118.545 572.86,112.752 581.073,111.558 					"/>
					<polygon style="fill:#FFDF78;" points="590.909,124.447 591.016,125.069 588.449,123.718 588.443,123.718 587.452,123.192 
						587.446,123.192 584.745,121.772 578.473,125.069 579.674,118.09 574.598,113.142 580.146,112.338 580.735,112.253 
						581.609,112.124 582.038,111.256 583.131,109.042 584.745,105.772 587.88,112.124 594.891,113.142 589.821,118.09 
						590.03,119.296 					"/>
				</g>
				<g style="opacity:0.5;">
					<polygon style="fill:#FFFFFF;" points="590.909,124.447 582.038,111.256 583.131,109.042 590.03,119.296 					"/>
				</g>
				<g style="opacity:0.5;">
					<polygon style="fill:#FFFFFF;" points="588.443,123.718 587.452,123.192 587.446,123.192 580.146,112.338 580.735,112.253 
											"/>
				</g>
			</g>
		</g>
		<g style="clip-path:url(#SVGID_00000079451186739622167740000003528571255435307442_);">
			<g>
				<path style="fill:#FF7CB3;" d="M364.078,52.822c-1.833,7.339-12.63,5.721-20.291,4.21c-7.661-1.511-14.349,6.15-14.349,6.15
					s-6.694-7.661-14.355-6.15c-7.661,1.511-18.452,3.129-20.284-4.21c0,0-5.352,13.281,4.559,24.461
					c0.98,1.101,2.102,2.075,3.31,2.934c3.116,2.202,9.494,5.916,15.544,4.438c8.42-2.048,11.227,4.425,11.227,4.425
					s2.807-6.473,11.22-4.425c6.05,1.477,12.435-2.236,15.551-4.438c1.202-0.859,2.33-1.833,3.31-2.934
					C369.429,66.103,364.078,52.822,364.078,52.822z M308.858,75.671c-9.065-5.465-5.828-11.005-5.828-11.005
					c17.626-0.215,21.439,11.005,21.439,11.005S317.922,81.137,308.858,75.671z M350.018,75.671c-9.064,5.466-15.611,0-15.611,0
					s3.814-11.22,21.439-11.005C355.846,64.666,359.082,70.205,350.018,75.671z"/>
				<path style="fill:#252525;" d="M350.018,75.671c-9.064,5.466-15.611,0-15.611,0s0.014-0.047,0.047-0.128
					c2.954,1.141,8.165,2.082,14.49-1.39c6.661-3.653,7.278-7.339,6.956-9.38C356.289,65.559,358.35,70.649,350.018,75.671z"/>
				<path style="fill:#252525;" d="M308.855,75.671c9.065,5.466,15.611,0,15.611,0s-0.013-0.047-0.047-0.128
					c-2.954,1.141-8.165,2.082-14.49-1.39c-6.661-3.653-7.279-7.339-6.956-9.38C302.584,65.559,300.522,70.649,308.855,75.671z"/>
			</g>
			<g style="opacity:0.5;">
				<g>
					<path style="fill:#252525;" d="M362.405,62.821c0,0.834-0.676,1.511-1.511,1.511c-0.834,0-1.511-0.676-1.511-1.511
						c0-0.834,0.676-1.511,1.511-1.511C361.728,61.311,362.405,61.987,362.405,62.821z"/>
					<path style="fill:#252525;" d="M299.492,62.821c0,0.834-0.676,1.511-1.511,1.511c-0.834,0-1.511-0.676-1.511-1.511
						c0-0.834,0.676-1.511,1.511-1.511C298.816,61.311,299.492,61.987,299.492,62.821z"/>
				</g>
			</g>
			<polygon style="fill:#492B71;" points="329.438,66.904 327.084,69.332 329.438,73.972 331.792,69.332 			"/>
			<g>
				<g>
					<circle style="fill:#FEB0A1;" cx="336.782" cy="64.085" r="1.551"/>
					<path style="fill:#FEB0A1;" d="M342.731,61.967c0,0.551-0.447,0.998-0.998,0.998c-0.551,0-0.998-0.447-0.998-0.998
						c0-0.551,0.447-0.998,0.998-0.998C342.284,60.969,342.731,61.416,342.731,61.967z"/>
					<path style="fill:#FEB0A1;" d="M347.587,61.293c0,0.507-0.411,0.917-0.917,0.917s-0.917-0.411-0.917-0.917
						c0-0.507,0.411-0.917,0.917-0.917S347.587,60.786,347.587,61.293z"/>
				</g>
				<g>
					<path style="fill:#FEB0A1;" d="M320.542,64.085c0,0.857,0.694,1.551,1.551,1.551c0.857,0,1.551-0.695,1.551-1.551
						c0-0.857-0.695-1.551-1.551-1.551C321.236,62.534,320.542,63.228,320.542,64.085z"/>
					<path style="fill:#FEB0A1;" d="M316.144,61.967c0,0.551,0.447,0.998,0.998,0.998s0.998-0.447,0.998-0.998
						c0-0.551-0.447-0.998-0.998-0.998S316.144,61.416,316.144,61.967z"/>
					<path style="fill:#FEB0A1;" d="M311.288,61.293c0,0.507,0.411,0.917,0.917,0.917c0.507,0,0.917-0.411,0.917-0.917
						c0-0.507-0.411-0.917-0.917-0.917C311.699,60.375,311.288,60.786,311.288,61.293z"/>
				</g>
			</g>
			<path style="opacity:0.5;fill:#252525;" d="M365.509,60.57c-0.155,4.485-1.517,9.944-5.989,14.987
				c-0.98,1.101-2.108,2.075-3.31,2.934c-3.116,2.202-9.501,5.916-15.551,4.438c-8.413-2.048-11.22,4.425-11.22,4.425
				s-2.807-6.473-11.227-4.425c-6.05,1.477-12.428-2.236-15.544-4.438c-1.209-0.859-2.33-1.833-3.31-2.934
				c-4.472-5.043-5.835-10.502-5.989-14.987c-0.154,4.754,0.933,11.005,5.989,16.712c0.98,1.101,2.102,2.075,3.31,2.934
				c3.116,2.202,9.494,5.916,15.544,4.438c8.42-2.048,11.227,4.425,11.227,4.425s2.807-6.473,11.22-4.425
				c6.05,1.477,12.435-2.236,15.551-4.438c1.202-0.859,2.33-1.833,3.31-2.934C364.576,71.575,365.664,65.324,365.509,60.57z"/>
		</g>
	</g>
	<g>
		<g>
			<path style="fill:#FF7CB3;" d="M55.244,239.178c0,0,9.935-4.99,14.908,4.206c1.008,1.864,1.574,3.942,1.727,6.055
				c0.221,3.046-0.091,7.881-3.123,12.71c0,0,1.384-9.391-2.25-15.507c-1.478-2.488-4.549-3.695-7.238-2.627
				c-1.351,0.537-2.61,1.618-3.18,3.704L55.244,239.178z"/>
			<path style="fill:#FE712B;" d="M68.757,262.149c0,0-2.28,8.952,4.307,10.852c6.587,1.9,11.148-3.8,11.148-3.8l-2.66-8.107
				c0,0-1.286,8.609-7.221,6.148s-4.443-7.142-4.443-7.142L68.757,262.149z"/>
		</g>
		<path style="fill:#FFC000;" d="M52.624,269.638c-6.394,1.413-7.348,2.557-8.525,10.23c-1.177-7.673-2.131-8.818-8.525-10.23
			c6.394-1.413,7.348-2.557,8.525-10.23C45.276,267.081,46.23,268.225,52.624,269.638z"/>
	</g>
	<g>
		<g>
			<path style="fill:#FF7CB3;" d="M787.95,206.106c0,0-8.331,2.734-6.131,12.126c0.386,1.646,1.078,3.204,1.92,4.67
				c1.615,2.813,4.892,9.232,0.961,8.918c-5.026-0.402-5.669-2.411-5.669-2.411l2.009,7.553c0,0,10.607,2.732,14.464-6.268
				C799.36,221.695,782.405,217.838,787.95,206.106z"/>
			<path style="fill:#FE712B;" d="M785.935,207.122c0,0,6.514-4.417,12.943,0.458l3-7.232
				C801.878,200.347,792.599,196.084,785.935,207.122z"/>
		</g>
		<g>
			<path style="fill:#FF7CB3;" d="M653.538,96.23c0,0,5.991,0.537,5.975,7.155c-0.003,1.16-0.225,2.308-0.56,3.418
				c-0.644,2.13-1.84,6.927,0.739,6.109c3.297-1.047,3.415-2.489,3.415-2.489l-0.173,5.359c0,0-6.666,3.468-10.637-1.95
				C648.326,108.416,659.06,103.213,653.538,96.23z"/>
			<path style="fill:#FE712B;" d="M655.041,96.598c0,0-5.037-1.944-8.579,2.309l-3.125-4.369
				C643.338,94.538,648.879,90.252,655.041,96.598z"/>
		</g>
		<g>
			<polygon style="fill:#FE712B;" points="632.582,50.56 639.893,24.833 652.107,30.512 			"/>
			<polygon style="fill:#FE712B;" points="638.099,56.428 654.254,45.914 655.041,57.768 			"/>
			<polygon style="fill:#FE712B;" points="625.06,31.839 625.862,50.632 616.831,35.918 			"/>
		</g>
		<path style="fill:#FF7CB3;" d="M760.858,52.993c0,0-4.75-8.671-7.58-7.808l5.214-9.544c0,0,6.769,4.653,9.808,17.425
			L760.858,52.993z"/>
		<path style="fill:#492B71;" d="M551.806,63.156c0,0-6.414,9.858-3.702,15.589l5.45-1.157c0,0-1.064-9.507,3.778-13.564
			L551.806,63.156z"/>
		<path style="fill:#FFC000;" d="M798.347,88.975c-6.394,1.413-7.348,2.558-8.525,10.23c-1.177-7.673-2.131-8.818-8.525-10.23
			c6.394-1.412,7.348-2.557,8.525-10.23C790.999,86.418,791.953,87.563,798.347,88.975z"/>
		<path style="fill:#FFC000;" d="M400.749,224.959c-5.305,1.172-6.097,2.122-7.074,8.488c-0.977-6.366-1.768-7.316-7.074-8.488
			c5.305-1.172,6.097-2.122,7.074-8.489C394.652,222.837,395.444,223.787,400.749,224.959z"/>
		<path style="fill:#FFC000;" d="M464.844,42.821c-6.394,1.412-7.348,2.557-8.525,10.23c-1.177-7.673-2.131-8.818-8.525-10.23
			c6.394-1.412,7.348-2.557,8.525-10.23C457.496,40.263,458.451,41.409,464.844,42.821z"/>
		<polygon style="fill:#FFC000;" points="354.522,131.016 359.965,120.72 370.426,120.849 359.005,137.457 		"/>
	</g>
	<g>
		<defs>
			
				<rect id="SVGID_00000163781579782692467840000002961538441282276481_" x="288.045" y="137.917" width="125.885" height="174.083"/>
		</defs>
		<clipPath id="SVGID_00000138562607930315641840000014316468414288584582_">
			<use xlink:href="#SVGID_00000163781579782692467840000002961538441282276481_"  style="overflow:visible;"/>
		</clipPath>
		<g style="clip-path:url(#SVGID_00000138562607930315641840000014316468414288584582_);">
			<path style="fill:none;stroke:#252525;stroke-miterlimit:10;" d="M371.626,216.481c0,0,5.371,22.438,0,45.58
				c-5.371,23.143,2.387,58.413,2.387,58.413"/>
			<g>
				<polygon style="fill:#FE712B;" points="373.581,214.891 371.813,214.891 371.438,214.891 369.671,214.891 367.581,220.597 
					371.438,220.597 371.813,220.597 375.671,220.597 				"/>
				<ellipse style="fill:#FE712B;" cx="371.626" cy="185.207" rx="24.075" ry="31.273"/>
			</g>
			<path style="opacity:0.5;fill:#252525;" d="M395.698,185.203c0,17.28-10.78,31.28-24.07,31.28c-6.5,0-12.4-3.35-16.74-8.79
				c3.64,2.88,7.91,4.53,12.48,4.53c13.3,0,24.08-14,24.08-31.27c0-8.84-2.83-16.83-7.36-22.51
				C391.048,163.923,395.698,173.863,395.698,185.203z"/>
			<path style="opacity:0.3;fill:#FFFFFF;" d="M361.196,175.869c-1.276,5.553-3.76,9.721-5.547,9.31
				c-1.788-0.411-2.203-5.245-0.927-10.798c1.276-5.553,3.76-9.721,5.547-9.311C362.057,165.482,362.472,170.316,361.196,175.869z"
				/>
			<ellipse style="opacity:0.3;fill:#FFFFFF;" cx="355.334" cy="191.454" rx="1.661" ry="3.429"/>
		</g>
		<g style="clip-path:url(#SVGID_00000138562607930315641840000014316468414288584582_);">
			<path style="fill:none;stroke:#252525;stroke-miterlimit:10;" d="M332.299,248.55c0,0,2.876,10.066-6.232,21.091
				c-9.108,11.025,8.149,6.711,10.066,18.695c1.917,11.984-6.352,39.786-6.352,39.786"/>
			<g>
				<g>
					<polygon style="fill:#FF7CB3;" points="333.788,246.208 332.425,246.208 332.136,246.208 330.773,246.208 329.163,250.606 
						332.136,250.606 332.425,250.606 335.398,250.606 					"/>
					<ellipse style="fill:#FF7CB3;" cx="332.28" cy="223.328" rx="18.557" ry="24.105"/>
				</g>
				<path style="opacity:0.5;fill:#252525;" d="M350.835,223.324c0,13.319-8.309,24.11-18.553,24.11
					c-5.01,0-9.558-2.582-12.903-6.775c2.806,2.22,6.097,3.492,9.619,3.492c10.251,0,18.56-10.791,18.56-24.102
					c0-6.814-2.181-12.972-5.673-17.35C347.251,206.922,350.835,214.583,350.835,223.324z"/>
				<path style="opacity:0.3;fill:#FFFFFF;" d="M324.241,216.13c-0.983,4.28-2.898,7.493-4.276,7.176
					c-1.378-0.317-1.698-4.043-0.714-8.323c0.983-4.28,2.898-7.493,4.276-7.176C324.905,208.124,325.225,211.85,324.241,216.13z"/>
				<path style="opacity:0.3;fill:#FFFFFF;" d="M321.003,228.143c0,1.459-0.573,2.643-1.28,2.643c-0.707,0-1.28-1.183-1.28-2.643
					c0-1.46,0.573-2.643,1.28-2.643C320.43,225.5,321.003,226.683,321.003,228.143z"/>
			</g>
		</g>
	</g>
</g>
<g id="TEXTS">
	<g>
		<text transform="matrix(1 0 0 1 45.4939 144.9464)" style="fill:#492B71; font-family:'LilitaOne'; font-size:38.3863px;">COSTUME PARTY</text>
		<rect x="45.392" y="162.561" style="fill:none;" width="274.675" height="32.034"/>
		<text transform="matrix(1 0 0 1 51.6399 169.3273)"><tspan x="0" y="0" style="fill:#252525; font-family:'Poppins-Light'; font-size:9.5289px;">Lorem ipsum dolor sit amet, consectetuer adipiscing elit, sed diam </tspan><tspan x="-3.359" y="11.436" style="fill:#252525; font-family:'Poppins-Light'; font-size:9.5289px;">nonummy nibh euismod tincidunt ut laoreet dolore magna aliquam </tspan><tspan x="123.271" y="22.87" style="fill:#252525; font-family:'Poppins-Light'; font-size:9.5289px;">erat </tspan></text>
		<g>
			<g>
				<path style="fill:#68469A;" d="M146.308,215.067c-9.065-4.567-18.047,4.415-13.48,13.48c0.773,1.535,2.036,2.797,3.571,3.571
					c9.065,4.568,18.047-4.415,13.48-13.48C149.105,217.103,147.843,215.84,146.308,215.067z M144.813,219.35h-1.327
					c0,0-1.123-0.079-1.123,0.919v1.973h2.212l-0.306,2.359h-2.053v6.181h-2.541v-6.227h-2.098v-2.37h2.155v-2.643
					c0-0.102,0.023-2.325,2.076-2.325l3.006-0.034V219.35z"/>
			</g>
			<g>
				<g>
					<path style="fill:#68469A;" d="M172.204,218.08h-5.716c-1.285,0-2.336,1.051-2.336,2.336v6.136
						c0,1.285,1.051,2.336,2.336,2.336h5.716c1.248,0,2.257-1.01,2.257-2.246v-6.318C174.461,219.09,173.451,218.08,172.204,218.08z
						 M167.207,226.107c-0.206-0.135-0.391-0.319-0.525-0.525c-2.168-3.331,1.425-6.899,4.717-4.704
						c0.2,0.133,0.379,0.313,0.512,0.512C174.11,224.682,170.539,228.278,167.207,226.107z M172.623,220.939
						c-0.386,0-0.703-0.318-0.703-0.692c0-0.386,0.318-0.703,0.703-0.703c0.386,0,0.692,0.318,0.692,0.703
						C173.315,220.621,173.009,220.939,172.623,220.939z M169.3,221.233c-1.236,0-2.246,1.009-2.246,2.257
						c0,1.236,1.009,2.246,2.246,2.246c1.248,0,2.257-1.01,2.257-2.246C171.557,222.243,170.548,221.233,169.3,221.233z"/>
					<path style="fill:#68469A;" d="M174.27,214.966c-9.095-4.614-18.114,4.475-13.457,13.525c0.784,1.523,2.048,2.773,3.581,3.538
						c9.042,4.508,17.977-4.442,13.441-13.484C177.065,217.008,175.804,215.743,174.27,214.966z M175.493,226.643
						c0,1.803-1.475,3.278-3.289,3.278h-5.765c-1.826,0-3.32-1.494-3.32-3.32v-6.234c0-1.826,1.494-3.32,3.32-3.32h5.765
						c1.815,0,3.289,1.475,3.289,3.278V226.643z"/>
				</g>
			</g>
			<g>
				<path style="fill:#68469A;" d="M201.748,215.067c-9.065-4.567-18.047,4.415-13.48,13.48c0.773,1.535,2.036,2.797,3.571,3.571
					c9.065,4.568,18.047-4.415,13.48-13.48C204.545,217.103,203.283,215.84,201.748,215.067z M201.693,221.233
					c0,0,0.261,3.618-2.507,5.796c0,0-3.493,2.631-8.234,0.431c0,0,2.132,0.204,3.709-1.021c0,0-1.577-0.238-2.529-1.542
					c0,0,0.93,0.034,1.35-0.136c0,0-1.622-0.613-2.234-2.575c0,0,0.715,0.612,1.656,0.692c0,0-2.132-1.282-1.202-3.652
					c0,0,2.11,2.711,5.092,2.495c0,0-0.159-1.837,1.384-2.688c0,0,1.576-0.873,2.949,0.476c0,0,0.987-0.238,1.554-0.635
					c0,0-0.17,0.692-0.964,1.304c0,0,0.488,0.147,1.27-0.249C202.986,219.929,202.736,220.78,201.693,221.233z"/>
			</g>
			<g>
				<path style="fill:#68469A;" d="M229.059,215.067c-9.065-4.567-18.047,4.415-13.48,13.48c0.773,1.535,2.036,2.797,3.571,3.571
					c9.065,4.568,18.047-4.415,13.48-13.48C231.857,217.103,230.594,215.84,229.059,215.067z M229.946,222.798
					c0,0-1.849,0.238-2.972-1.066v5.115c0,0-0.113,3.142-3.902,3.187c-0.091,0-2.926,0.068-3.845-2.711
					c-0.306-0.919-0.215-2.008,0.17-2.892c0.454-1.043,1.713-2.506,4.208-2.359v1.871c-1.338-0.045-2.2,0.59-2.439,1.52
					c-0.34,1.338,0.658,2.541,1.939,2.541c1.157,0,1.826-0.783,1.826-2.835l-0.045-7.622h2.178v0.613
					c0,0.261,0.045,0.51,0.159,0.748c0.306,0.647,1.1,1.803,2.722,1.701V222.798z"/>
			</g>
		</g>
	</g>
</g>
</svg>
